<?xml version="1.0" encoding="UTF-8"?>
<svg version="1.1" xmlns="http://www.w3.org/2000/svg" width="1024" height="1024">
<path d="M0 0 C337.92 0 675.84 0 1024 0 C1024 337.92 1024 675.84 1024 1024 C686.08 1024 348.16 1024 0 1024 C0 686.08 0 348.16 0 0 Z " fill="#000000" transform="translate(0,0)"/>
<path d="M0 0 C40.59 0 81.18 0 123 0 C123.495 1.98 123.495 1.98 124 4 C124.66 4 125.32 4 126 4 C127.0859375 5.37109375 127.0859375 5.37109375 128.375 7.4375 C131.43966111 12.19638409 134.66381517 16.821478 137.9375 21.4375 C138.72096802 22.54665771 138.72096802 22.54665771 139.52026367 23.67822266 C141.76552814 26.85558328 144.01865092 30.02581947 146.296875 33.1796875 C146.92078125 34.04851562 147.5446875 34.91734375 148.1875 35.8125 C148.71730469 36.54082031 149.24710938 37.26914062 149.79296875 38.01953125 C151.01707631 40.02801842 151.57093927 41.69961415 152 44 C152.66 44 153.32 44 154 44 C155.29345703 45.56958008 155.29345703 45.56958008 156.7578125 47.76953125 C157.29760742 48.57124756 157.83740234 49.37296387 158.39355469 50.19897461 C159.25062012 51.49266968 159.25062012 51.49266968 160.125 52.8125 C161.29804591 54.56085832 162.47252077 56.30825876 163.6484375 58.0546875 C164.22045898 58.90514648 164.79248047 59.75560547 165.38183594 60.63183594 C168.00444019 64.4699864 170.78721362 68.17738254 173.609375 71.87109375 C174.97482432 73.96145858 175.57714361 75.55744796 176 78 C176.66 78 177.32 78 178 78 C180.17204 80.96187272 181.83561997 83.50685991 183 87 C183.66 87 184.32 87 185 87 C185.4228125 87.88945312 185.845625 88.77890625 186.28125 89.6953125 C187.8349743 92.68270058 189.47844456 95.19386927 191.5 97.875 C194.89377703 102.45597742 198.16144397 107.10349332 201.375 111.8125 C204.9205679 117.00218452 208.51419708 122.14992986 212.1875 127.25 C215.29829443 131.56959863 218.31582354 135.93197758 221.25 140.375 C223.80302701 144.23753191 226.42258781 147.99492252 229.234375 151.671875 C231.71414309 154.94165771 234.13678528 158.25250678 236.5625 161.5625 C237.02180908 162.18809814 237.48111816 162.81369629 237.9543457 163.45825195 C238.8559473 164.68823757 239.75547572 165.91974578 240.65283203 167.15283203 C241.57989927 168.42397932 242.51356355 169.69033299 243.45263672 170.95263672 C247 175.77859908 247 175.77859908 247 178 C247.99 178 248.98 178 250 178 C250.09410156 177.44828125 250.18820312 176.8965625 250.28515625 176.328125 C251.1916144 173.37594435 252.66343518 171.27278656 254.4375 168.75 C255.05496094 167.85796875 255.67242188 166.9659375 256.30859375 166.046875 C257.14583984 165.03367187 257.14583984 165.03367187 258 164 C258.66 164 259.32 164 260 164 C260.38865234 162.91138672 260.38865234 162.91138672 260.78515625 161.80078125 C262.04843186 158.88834198 263.52318257 156.7147174 265.4375 154.1875 C268.84063928 149.61107623 272.10484452 144.96523652 275.3125 140.25 C278.90319672 134.98654137 282.57678359 129.80308471 286.375 124.6875 C291.23225667 118.14340256 295.85069792 111.45087474 300.40966797 104.69604492 C302.85631406 101.08166383 305.33385198 97.51626399 307.97265625 94.0390625 C311.96727632 88.77274446 315.6214911 83.27852411 319.3203125 77.80273438 C322.08108152 73.7364602 324.89783765 69.81604908 328 66 C329.43420407 63.99157512 330.8498127 61.96978624 332.25 59.9375 C332.64348633 59.36733154 333.03697266 58.79716309 333.44238281 58.2097168 C335.92210644 54.60533975 338.34667406 50.96840683 340.75 47.3125 C344.74384702 41.27770911 348.99934653 35.44591951 353.26782227 29.60327148 C357.00762053 24.45699701 360.48390763 19.24738613 363.73046875 13.7734375 C364.14941406 13.18820312 364.56835938 12.60296875 365 12 C365.66 12 366.32 12 367 12 C367.3403125 10.9790625 367.3403125 10.9790625 367.6875 9.9375 C370.97779038 2.57351677 370.97779038 2.57351677 374 0 C377.82231827 -1.02840277 381.5544273 -0.88518412 385.49145508 -0.79467773 C386.65286011 -0.79569992 387.81426514 -0.79672211 389.01086426 -0.79777527 C392.84801929 -0.7929001 396.68279216 -0.73845422 400.51953125 -0.68359375 C403.18043549 -0.67053724 405.84120795 -0.66022917 408.50212097 -0.65357971 C414.78869876 -0.63184232 421.07442211 -0.57442748 427.36062402 -0.50413328 C434.51888664 -0.42582901 441.67719057 -0.38738837 448.83577502 -0.35226524 C463.55761989 -0.27914189 478.27879505 -0.15605657 493 0 C493 0.66 493 1.32 493 2 C492.34 2 491.68 2 491 2 C490.7421875 2.85980469 490.484375 3.71960938 490.21875 4.60546875 C488.9551405 8.12494521 487.38578763 11.08579371 485.5 14.3125 C484.97877563 15.20884155 484.97877563 15.20884155 484.44702148 16.12329102 C483.30365244 18.08554929 482.15203548 20.04281919 481 22 C480.18850633 23.38784794 479.37731353 24.77587185 478.56640625 26.1640625 C475.23109408 31.86213256 471.88050351 37.55042159 468.46875 43.203125 C468.06390381 43.8741626 467.65905762 44.5452002 467.24194336 45.23657227 C466.48198282 46.49362975 465.71993435 47.74942852 464.95532227 49.00366211 C462.78496365 52.58949403 460.82610451 56.2275772 459 60 C458.34 60 457.68 60 457 60 C456.67708984 61.19496094 456.67708984 61.19496094 456.34765625 62.4140625 C454.58401853 67.10687243 452.06855809 71.12257071 449.4375 75.375 C444.08834772 84.14319807 438.97061736 93.01272214 434 102 C433.34 102 432.68 102 432 102 C431.78601563 102.80308594 431.57203125 103.60617187 431.3515625 104.43359375 C429.5966194 109.0644118 427.06886291 112.92557009 424.375 117.0625 C423.2741717 118.77828162 422.17391125 120.49442769 421.07421875 122.2109375 C420.27443604 123.45375488 420.27443604 123.45375488 419.45849609 124.72167969 C417.66571517 127.52218714 415.92016154 130.34945394 414.1875 133.1875 C409.01314841 141.63675766 403.74321222 150.02650073 398.48828125 158.42578125 C397.59616943 159.85204834 397.59616943 159.85204834 396.68603516 161.30712891 C395.61438005 163.0187356 394.54129987 164.72945149 393.46630859 166.43896484 C391.10928134 170.14843301 391.10928134 170.14843301 389 174 C426.62 174 464.24 174 503 174 C502.34 175.98 501.68 177.96 501 180 C500.34 180 499.68 180 499 180 C498.75507812 180.64324219 498.51015625 181.28648437 498.2578125 181.94921875 C496.59995748 185.97028946 494.73899262 189.8836251 492.875 193.8125 C492.50246094 194.60076172 492.12992188 195.38902344 491.74609375 196.20117188 C490.83204476 198.13473705 489.91620158 200.06745388 489 202 C488.34 202 487.68 202 487 202 C486.7525 202.825 486.505 203.65 486.25 204.5 C484.81295189 208.52373471 482.97645485 212.21979024 481 216 C480.34 216 479.68 216 479 216 C478.731875 216.71542969 478.46375 217.43085938 478.1875 218.16796875 C473.94129931 228.29459869 467.1499585 237.63933693 461.30712891 246.91796875 C460.00416036 248.99337327 458.70968087 251.07382379 457.41796875 253.15625 C445.76912729 271.92494178 433.16575577 289.9397897 419.3125 307.16015625 C417.81303255 309.07171955 417.81303255 309.07171955 417 312 C415.0625 314.1875 415.0625 314.1875 413 316 C412.34 316 411.68 316 411 316 C410.74863281 316.56074219 410.49726562 317.12148438 410.23828125 317.69921875 C408.81178021 320.34972069 407.1007898 322.48948083 405.1875 324.8125 C402.77421605 327.77564611 400.42740787 330.73437743 398.25 333.875 C396.297359 336.58700139 394.34774559 338.65225441 392 341 C390.56282272 342.69111462 389.14739936 344.40087058 387.75 346.125 C386.97011719 347.08277344 386.19023438 348.04054688 385.38671875 349.02734375 C383.81286736 350.98757437 382.25258091 352.95878462 380.70703125 354.94140625 C379.99933594 355.84761719 379.29164063 356.75382812 378.5625 357.6875 C377.92441406 358.51636719 377.28632812 359.34523438 376.62890625 360.19921875 C376.09136719 360.79347656 375.55382812 361.38773438 375 362 C374.34 362 373.68 362 373 362 C372.66548828 362.79857422 372.66548828 362.79857422 372.32421875 363.61328125 C370.54844047 366.81387277 368.20541175 369.44196974 365.8125 372.1875 C362.55248576 375.97715389 359.34332708 379.77203946 356.3125 383.75 C353.3930157 387.56618305 350.24980124 391.12233555 347.03125 394.6875 C344.95889513 397.04679631 343.00515737 399.47063349 341.0625 401.9375 C338.38400472 405.32991329 335.61346945 408.56891934 332.6875 411.75 C329.17703123 415.59651364 325.93132673 419.57102659 322.75 423.6875 C316.79444164 431.38472831 310.43200425 438.69978882 304 446 C302.79126147 447.37464381 301.58283918 448.74956591 300.375 450.125 C299.85421875 450.71796875 299.3334375 451.3109375 298.796875 451.921875 C295.89655083 455.27616295 293.05231499 458.67809464 290.19799805 462.0715332 C287.26114563 465.54942459 284.25854376 468.95144199 281.1875 472.3125 C277.90608988 475.90558528 274.96433957 479.60411447 272.19140625 483.6015625 C271.79824219 484.06304688 271.40507813 484.52453125 271 485 C270.34 485 269.68 485 269 485 C269 485.66 269 486.32 269 487 C266.03 487 263.06 487 260 487 C261.40490247 479.13254619 264.16782216 471.92944217 267.03466797 464.50927734 C268.92361459 459.59916268 270.77254289 454.67396778 272.625 449.75 C272.9969751 448.76894287 273.3689502 447.78788574 273.75219727 446.77709961 C276.01389678 440.77453 278.10086154 434.73501995 280.10693359 428.64257812 C281.11456515 425.6610024 282.25322936 422.76447519 283.5 419.875 C283.92152344 418.88113281 284.34304688 417.88726563 284.77734375 416.86328125 C285.18082031 415.91839844 285.58429688 414.97351563 286 414 C288.74189395 407.52189892 290.96725805 401.01316954 292.984375 394.2734375 C294.48081213 389.45030551 296.21998991 384.72460125 298 380 C298.66 380 299.32 380 300 380 C300.309375 378.0509375 300.309375 378.0509375 300.625 376.0625 C302.99872543 364.09140988 308.10480183 352.54246149 312.46484375 341.17578125 C315.64092809 332.8648502 318.51189217 324.5473822 321 316 C321.66 316 322.32 316 323 316 C323.11408203 314.38158203 323.11408203 314.38158203 323.23046875 312.73046875 C323.95893479 306.92698011 326.17739097 301.72186777 328.3125 296.3125 C331.25331807 288.69855359 334.04900178 281.15792117 336.24609375 273.29296875 C337 271 337 271 339 268 C339.38499891 266.34450469 339.72793135 264.6777567 340 263 C335.87278359 262.89490174 331.75061891 262.85685589 327.62207031 262.87792969 C326.22154025 262.87599614 324.82091041 262.85649967 323.42089844 262.81835938 C314.87633934 262.48718957 314.87633934 262.48718957 307.40869141 266.08862305 C305.36866327 268.63114583 303.66492364 271.20062744 302 274 C301.17113985 275.10835251 300.32767757 276.20616779 299.4609375 277.28515625 C295.58879958 282.44075561 291.82735234 287.60708097 288.38671875 293.0625 C286.790676 295.29246395 284.94219619 297.06499713 283 299 C281.49087406 300.85097215 280.01494671 302.72922639 278.5625 304.625 C278.14291016 305.17115967 277.72332031 305.71731934 277.29101562 306.2800293 C274.63842173 309.76035917 272.06498272 313.29047388 269.52734375 316.85546875 C268.94202881 317.67644043 268.35671387 318.49741211 267.75366211 319.34326172 C266.59325414 320.97717043 265.43900797 322.61547444 264.29125977 324.25830078 C263.49739868 325.37760986 263.49739868 325.37760986 262.6875 326.51953125 C262.21699219 327.19089111 261.74648438 327.86225098 261.26171875 328.55395508 C260.84535156 329.0311499 260.42898438 329.50834473 260 330 C259.34 330 258.68 330 258 330 C257.75894531 330.71285156 257.51789063 331.42570312 257.26953125 332.16015625 C255.81348857 335.41721171 253.98649772 337.71347749 251.6875 340.4375 C250.48867188 341.86835937 250.48867188 341.86835937 249.265625 343.328125 C248.14414062 344.65070313 248.14414062 344.65070313 247 346 C245.97803856 347.22822889 244.95692226 348.45716279 243.9375 349.6875 C243.298125 350.450625 242.65875 351.21375 242 352 C238.03259987 350.67753329 236.76858136 348.15292703 234.5625 344.8125 C234.18029297 344.24724609 233.79808594 343.68199219 233.40429688 343.09960938 C232.63972902 341.96638741 231.88008084 340.82983004 231.12548828 339.68994141 C230.36932469 338.55454783 229.60182917 337.4266274 228.82373047 336.30615234 C226 332.21416777 226 332.21416777 226 330 C225.34 330 224.68 330 224 330 C222.6953125 328.19140625 222.6953125 328.19140625 221.125 325.5625 C217.33039496 319.39123151 213.16722464 313.52622316 208.91259766 307.66430664 C208.40647949 306.95910889 207.90036133 306.25391113 207.37890625 305.52734375 C206.9207251 304.89562256 206.46254395 304.26390137 205.99047852 303.61303711 C205 302 205 302 205 300 C204.34 300 203.68 300 203 300 C201.85839844 298.47460938 201.85839844 298.47460938 200.609375 296.34375 C199.91521484 295.17972656 199.91521484 295.17972656 199.20703125 293.9921875 C198.72621094 293.16976563 198.24539063 292.34734375 197.75 291.5 C194.54987348 286.05712553 191.26067189 280.85680347 187.41015625 275.84863281 C185.37109016 273.17553579 183.4983252 270.41704407 181.625 267.625 C180.93664062 266.60664062 180.24828125 265.58828125 179.5390625 264.5390625 C178 262 178 262 178 260 C177.34 260 176.68 260 176 260 C174.51592021 257.90233935 173.15277232 255.81221692 171.8125 253.625 C170.99376114 252.31932441 170.17344038 251.01463947 169.3515625 249.7109375 C168.9484082 249.06995117 168.54525391 248.42896484 168.12988281 247.76855469 C166.71191671 245.5490762 165.21538816 243.39506466 163.6875 241.25 C160.46258798 236.70985888 157.38566585 232.08080718 154.3125 227.4375 C149.7396544 220.53751202 145.03843293 213.74366908 140.23754883 207.00073242 C136.61845612 201.90855073 133.12902072 196.75068971 129.71875 191.515625 C127.99928726 188.93102705 127.99928726 188.93102705 125.88671875 186.359375 C124.06760915 184.08454643 122.7265877 181.74829234 121.3203125 179.20703125 C118.57695021 174.62123335 115.41967453 170.28903332 112.34843445 165.91899109 C110.67697015 163.54028808 109.01000356 161.15845466 107.34301758 158.77661133 C106.71599442 157.88073807 106.08897125 156.98486481 105.44294739 156.06184387 C104.96677475 155.38143539 104.49060211 154.70102692 104 154 C103.89740238 209.31617227 103.86714247 264.6243222 104.5 319.9375 C104.82085159 347.98065432 105.04599321 376.02135121 105.06640625 404.06640625 C105.06778752 405.90453542 105.06778752 405.90453542 105.0691967 407.77979851 C105.08431244 434.18653057 105.03236112 460.59332345 105 487 C70.35 487 35.7 487 0 487 C0 326.29 0 165.58 0 0 Z " fill="#ECE3DD" transform="translate(265,268)"/>
<path d="M0 0 C0.33 0 0.66 0 1 0 C2.01221283 32.48083044 2.29127999 64.96491068 2.51740873 97.45867813 C2.55685996 103.09616363 2.59999414 108.73361584 2.64418942 114.37106591 C2.69865142 121.32255758 2.75051978 128.27406707 2.8016727 135.22558379 C2.81591356 137.14077161 2.83063288 139.05595584 2.84536934 140.97113991 C3.02241406 164.31509937 3 187.65409228 3 211 C-30.66 211 -64.32 211 -99 211 C-99 177.34 -99 143.68 -99 109 C-98.34 109 -97.68 109 -97 109 C-96.67 108.01 -96.34 107.02 -96 106 C-95.34 106 -94.68 106 -94 106 C-93.7525 105.443125 -93.505 104.88625 -93.25 104.3125 C-91.77075182 101.57589087 -90.06532561 99.32349131 -88 97 C-87.34 97 -86.68 97 -86 97 C-85.7525 96.443125 -85.505 95.88625 -85.25 95.3125 C-83.77075182 92.57589087 -82.06532561 90.32349131 -80 88 C-79.34 88 -78.68 88 -78 88 C-77.67708984 87.19949219 -77.67708984 87.19949219 -77.34765625 86.3828125 C-75.50423156 83.12342392 -72.99986627 80.5718823 -70.4375 77.875 C-66.81366093 74.23596593 -66.81366093 74.23596593 -64 70 C-63.34 70 -62.68 70 -62 70 C-61.505 68.515 -61.505 68.515 -61 67 C-60.34 67 -59.68 67 -59 67 C-58.731875 66.41734375 -58.46375 65.8346875 -58.1875 65.234375 C-56.98519009 62.97213399 -55.66174087 61.19423682 -54 59.25 C-53.484375 58.63640625 -52.96875 58.0228125 -52.4375 57.390625 C-51 56 -51 56 -49 56 C-48.72760498 55.40469482 -48.45520996 54.80938965 -48.17456055 54.19604492 C-47.02967324 52.05547928 -45.8825856 50.60280279 -44.20703125 48.86328125 C-43.66216064 48.28980957 -43.11729004 47.71633789 -42.5559082 47.12548828 C-41.9805835 46.52720215 -41.40525879 45.92891602 -40.8125 45.3125 C-36.31076538 40.56958995 -32.09128349 35.79798967 -28.26953125 30.4765625 C-27.64111328 29.74566406 -27.64111328 29.74566406 -27 29 C-26.34 29 -25.68 29 -25 29 C-24.7306665 28.40848145 -24.46133301 27.81696289 -24.18383789 27.20751953 C-23.00132468 25.00247015 -21.77937778 23.48358441 -20.05859375 21.6796875 C-19.18883911 20.75941772 -19.18883911 20.75941772 -18.30151367 19.82055664 C-17.68638916 19.17852295 -17.07126465 18.53648926 -16.4375 17.875 C-15.17108464 16.53850889 -13.9054612 15.20126695 -12.640625 13.86328125 C-12.02123047 13.20924316 -11.40183594 12.55520508 -10.76367188 11.88134766 C-7.62907477 8.53760384 -4.6013154 5.10131049 -1.57421875 1.66015625 C-1.05472656 1.11230469 -0.53523437 0.56445312 0 0 Z " fill="#F6F6F4" transform="translate(750,544)"/>
<path d="M0 0 C1.65 0 3.3 0 5 0 C4.01 0.495 4.01 0.495 3 1 C3.66 1.66 4.32 2.32 5 3 C5.33 3 5.66 3 6 3 C6.10251672 8.12583611 6.03590199 12.94997778 5 18 C4.34 18 3.68 18 3 18 C2.87977358 23.77086794 3.08303876 29.29446341 4 35 C4.33 35.33 4.66 35.66 5 36 C5.04080783 37.99958364 5.04254356 40.00045254 5 42 C4.34 42 3.68 42 3 42 C2.67 50.25 2.34 58.5 2 67 C2.99 67.33 3.98 67.66 5 68 C5 69.98 5 71.96 5 74 C4.34 74 3.68 74 3 74 C3 84.89 3 95.78 3 107 C3.66 107 4.32 107 5 107 C5.125 113.75 5.125 113.75 4 116 C3.76827173 118.54615009 3.58105471 121.07396225 3.4375 123.625 C3.39431641 124.33140625 3.35113281 125.0378125 3.30664062 125.765625 C3.20055249 127.51018537 3.09977111 129.25506697 3 131 C3.66 131 4.32 131 5 131 C5 133.64 5 136.28 5 139 C4.34 139 3.68 139 3 139 C3 141.64 3 144.28 3 147 C3.66 147 4.32 147 5 147 C5 149.31 5 151.62 5 154 C4.34 154 3.68 154 3 154 C3 172.81 3 191.62 3 211 C3.66 211 4.32 211 5 211 C5.17622846 215.05325464 4.94840761 218.49025425 4 222.4375 C2.70403568 228.34637227 2.89172527 234.15948043 3.02734375 240.16796875 C3.00051442 243.92790747 2.61846844 247.30357235 2 251 C2.99 251.33 3.98 251.66 5 252 C5.02692484 254.29160319 5.04636124 256.58329546 5.0625 258.875 C5.07410156 260.15117188 5.08570313 261.42734375 5.09765625 262.7421875 C5 266 5 266 4 268 C3.76827173 270.54615009 3.58105471 273.07396225 3.4375 275.625 C3.37272461 276.68460938 3.37272461 276.68460938 3.30664062 277.765625 C3.20055249 279.51018537 3.09977111 281.25506697 3 283 C3.66 283.33 4.32 283.66 5 284 C4.01 291.425 4.01 291.425 3 299 C3.66 299 4.32 299 5 299 C5.92769758 315.33410382 6.11087698 331.64393811 6.125 348 C6.12749756 349.01749329 6.12999512 350.03498657 6.13256836 351.08331299 C6.13850888 354.03474245 6.13694594 356.98606914 6.1328125 359.9375 C6.13479645 360.81804047 6.1367804 361.69858093 6.13882446 362.60580444 C6.11831721 368.14375928 5.69794925 373.5051225 5 379 C4.34 379 3.68 379 3 379 C3 392.2 3 405.4 3 419 C3.66 419 4.32 419 5 419 C5.125 425.75 5.125 425.75 4 428 C3.76827173 430.54615009 3.58105471 433.07396225 3.4375 435.625 C3.37272461 436.68460938 3.37272461 436.68460938 3.30664062 437.765625 C3.20055249 439.51018537 3.09977111 441.25506697 3 443 C3.66 443 4.32 443 5 443 C5.125 449.75 5.125 449.75 4 452 C3.84733388 453.73868744 3.75067404 455.48247501 3.68359375 457.2265625 C3.64169922 458.2578125 3.59980469 459.2890625 3.55664062 460.3515625 C3.51732422 461.43179687 3.47800781 462.51203125 3.4375 463.625 C3.39431641 464.71296875 3.35113281 465.8009375 3.30664062 466.921875 C3.2003547 469.6144517 3.09831943 472.30712253 3 475 C3.66 475 4.32 475 5 475 C5 477.64 5 480.28 5 483 C6.19825409 482.99777939 7.39650818 482.99555878 8.631073 482.99327087 C19.90301614 482.97303184 31.17495561 482.95802417 42.44691277 482.94818783 C48.24244822 482.94296095 54.03796906 482.93586681 59.83349609 482.92456055 C65.42258982 482.91372479 71.01166944 482.90772169 76.60077286 482.90512276 C78.7370946 482.90326976 80.87341553 482.89965152 83.00973129 482.89426994 C85.99332113 482.8870504 88.9768521 482.88600945 91.96044922 482.88647461 C92.85092957 482.88287933 93.74140991 482.87928406 94.65887451 482.87557983 C100.77189568 482.88594784 100.77189568 482.88594784 103 484 C103 467.83 103 451.66 103 435 C103.33 435 103.66 435 104 435 C106.10899579 451.87196633 105 468.99673234 105 486 C70.35 486 35.7 486 0 486 C0 325.62 0 165.24 0 0 Z " fill="#F5F5F5" transform="translate(265,269)"/>
<path d="M0 0 C0.99 1.32 1.98 2.64 3 4 C2.68417969 4.54398438 2.36835937 5.08796875 2.04296875 5.6484375 C0.83248381 8.37769568 0.556675 10.6548713 0.3125 13.625 C0.18294922 15.06746094 0.18294922 15.06746094 0.05078125 16.5390625 C-0.19115504 19.00566568 -0.19115504 19.00566568 1 21 C-0.32 21.33 -1.64 21.66 -3 22 C-2.9175 22.721875 -2.835 23.44375 -2.75 24.1875 C-3 27 -3 27 -4.96875 29.25 C-7.45047468 32.60987342 -7.58303801 34.68019073 -7.75 38.8125 C-7.83507812 40.55466797 -7.83507812 40.55466797 -7.921875 42.33203125 C-7.96054687 43.65267578 -7.96054687 43.65267578 -8 45 C-8.91845703 45.10054687 -8.91845703 45.10054687 -9.85546875 45.203125 C-12.1870288 45.81931469 -12.1870288 45.81931469 -13.30078125 48.109375 C-13.63464844 48.98078125 -13.96851563 49.8521875 -14.3125 50.75 C-14.83263672 52.04164063 -14.83263672 52.04164063 -15.36328125 53.359375 C-16.07535163 56.31250124 -15.68904742 58.08139201 -15 61 C-15.9375 63.3125 -15.9375 63.3125 -17 65 C-16.34 65 -15.68 65 -15 65 C-15.66 66.32 -16.32 67.64 -17 69 C-17.33 68.34 -17.66 67.68 -18 67 C-22.94469884 72.32506029 -24 75.63393567 -24 83 C-24 83.66 -24 84.32 -24 85 C-24.66 85 -25.32 85 -26 85 C-25.67 86.65 -25.34 88.3 -25 90 C-26.66666667 90 -28.33333333 90 -30 90 C-29.67 90.99 -29.34 91.98 -29 93 C-29.66 93.66 -30.32 94.32 -31 95 C-31.42641108 97.56175464 -31.42641108 97.56175464 -31.5625 100.4375 C-31.76751306 103.57963901 -31.99964773 105.99894319 -33 109 C-34.485 109.495 -34.485 109.495 -36 110 C-39.31035245 116.62070489 -39.37130774 123.76637505 -39 131 C-40.11375 131.515625 -41.2275 132.03125 -42.375 132.5625 C-45.52365835 134.35991226 -45.95696987 134.90138929 -47.5 138.4375 C-47.97135882 141.79593158 -47.78579342 143.76951594 -47 147 C-47.25953647 149.85490116 -47.72139256 150.74925331 -49.875 152.6875 C-53.08558987 156.18137721 -55 161.19823364 -55 166 C-54.113125 165.835 -53.22625 165.67 -52.3125 165.5 C-49.46403108 165.07004243 -46.86995198 164.91558965 -44 165 C-44.33 163.02 -44.66 161.04 -45 159 C-44.1646875 158.814375 -44.1646875 158.814375 -43.3125 158.625 C-40.77885636 157.94023145 -38.42078968 157.00866237 -36 156 C-36.5259375 155.071875 -36.5259375 155.071875 -37.0625 154.125 C-37.371875 153.42375 -37.68125 152.7225 -38 152 C-37.67 151.34 -37.34 150.68 -37 150 C-34.4375 149.375 -34.4375 149.375 -32 149 C-31.40267181 146.23735711 -31 143.83967231 -31 141 C-30.2575 141.04125 -29.515 141.0825 -28.75 141.125 C-25.91241048 140.99601866 -24.41226062 140.42948778 -22 139 C-22 137.02 -22 135.04 -22 133 C-19.36 133 -16.72 133 -14 133 C-18.07331044 138.77880221 -22.63472699 143.95243209 -27.42578125 149.14453125 C-29.87839159 151.86510508 -32.20176921 154.64856676 -34.5 157.5 C-38.38289398 162.31753749 -42.50164258 166.86268388 -46.69921875 171.40625 C-49.30542695 174.34431833 -51.61627936 177.40559128 -53.84375 180.63671875 C-54.41609375 181.31154297 -54.41609375 181.31154297 -55 182 C-55.66 182 -56.32 182 -57 182 C-57 182.66 -57 183.32 -57 184 C-59.97 184 -62.94 184 -66 184 C-64.59509753 176.13254619 -61.83217784 168.92944217 -58.96533203 161.50927734 C-57.07638541 156.59916268 -55.22745711 151.67396778 -53.375 146.75 C-53.0030249 145.76894287 -52.6310498 144.78788574 -52.24780273 143.77709961 C-49.98610322 137.77453 -47.89913846 131.73501995 -45.89306641 125.64257812 C-44.88543485 122.6610024 -43.74677064 119.76447519 -42.5 116.875 C-42.07847656 115.88113281 -41.65695312 114.88726563 -41.22265625 113.86328125 C-40.61744141 112.44595703 -40.61744141 112.44595703 -40 111 C-37.25810605 104.52189892 -35.03274195 98.01316954 -33.015625 91.2734375 C-31.51918787 86.45030551 -29.78001009 81.72460125 -28 77 C-27.34 77 -26.68 77 -26 77 C-25.79375 75.700625 -25.5875 74.40125 -25.375 73.0625 C-23.00127457 61.09140988 -17.89519817 49.54246149 -13.53515625 38.17578125 C-10.35907191 29.8648502 -7.48810783 21.5473822 -5 13 C-4.34 13 -3.68 13 -3 13 C-2.814375 11.1746875 -2.814375 11.1746875 -2.625 9.3125 C-2.21108694 5.93520941 -1.45426549 3.10243305 0 0 Z " fill="#F3D083" transform="translate(591,571)"/>
<path d="M0 0 C1.16140503 -0.00102219 2.32281006 -0.00204437 3.51940918 -0.00309753 C7.35656421 0.00177764 11.19133708 0.05622352 15.02807617 0.11108398 C17.68898041 0.12414049 20.34975287 0.13444856 23.01066589 0.14109802 C29.29724368 0.16283542 35.58296703 0.22025025 41.86916894 0.29054445 C49.02743156 0.36884872 56.18573549 0.40728936 63.34431994 0.4424125 C78.06616481 0.51553585 92.78733997 0.63862116 107.50854492 0.79467773 C107.50854492 1.45467773 107.50854492 2.11467773 107.50854492 2.79467773 C106.84854492 2.79467773 106.18854492 2.79467773 105.50854492 2.79467773 C105.25459961 3.64803711 105.0006543 4.50139648 104.73901367 5.38061523 C103.42972962 9.01335892 101.77013626 12.08822495 99.82104492 15.41967773 C99.47235352 16.01925293 99.12366211 16.61882812 98.7644043 17.23657227 C97.68397334 19.09215871 96.59630453 20.94338042 95.50854492 22.79467773 C94.81387726 23.98700339 94.11984726 25.17970082 93.42651367 26.37280273 C91.79177983 29.18281366 90.15233611 31.98995902 88.50854492 34.79467773 C87.02354492 34.29967773 87.02354492 34.29967773 85.50854492 33.79467773 C85.78698242 32.92842773 85.78698242 32.92842773 86.07104492 32.04467773 C86.67806774 29.82253279 86.67806774 29.82253279 85.94604492 27.79467773 C85.50854492 25.79467773 85.50854492 25.79467773 86.13354492 23.60717773 C87.50854492 21.79467773 87.50854492 21.79467773 90.13354492 21.04467773 C90.91729492 20.96217773 91.70104492 20.87967773 92.50854492 20.79467773 C92.69416992 19.09311523 92.69416992 19.09311523 92.88354492 17.35717773 C93.08979492 16.18155273 93.29604492 15.00592773 93.50854492 13.79467773 C94.16854492 13.46467773 94.82854492 13.13467773 95.50854492 12.79467773 C96.49854492 13.28967773 96.49854492 13.28967773 97.50854492 13.79467773 C97.01354492 12.30967773 97.01354492 12.30967773 96.50854492 10.79467773 C96.94604492 8.10717773 96.94604492 8.10717773 97.50854492 5.79467773 C96.84854492 5.79467773 96.18854492 5.79467773 95.50854492 5.79467773 C95.17854492 6.45467773 94.84854492 7.11467773 94.50854492 7.79467773 C94.01354492 5.81467773 94.01354492 5.81467773 93.50854492 3.79467773 C92.89847092 3.8246434 92.28839691 3.85460907 91.65983582 3.88548279 C70.90873648 4.86562212 50.1929341 4.91794201 29.42388916 4.86334229 C25.01786802 4.85290711 20.61184062 4.84850253 16.20581055 4.84350586 C7.64003889 4.83294548 -0.92570345 4.81599772 -9.49145508 4.79467773 C-9.82145508 7.10467773 -10.15145508 9.41467773 -10.49145508 11.79467773 C-11.08958008 11.91842773 -11.68770508 12.04217773 -12.30395508 12.16967773 C-14.75376856 12.74943759 -14.75376856 12.74943759 -17.49145508 14.79467773 C-17.9445687 16.8013238 -18.39668458 18.80822963 -18.83520508 20.81811523 C-19.87606304 23.9530803 -21.69239804 25.19521657 -24.49145508 26.79467773 C-25.81145508 26.79467773 -27.13145508 26.79467773 -28.49145508 26.79467773 C-27.1714345 23.22173742 -25.5962412 20.15514281 -23.49145508 16.98217773 C-22.97583008 16.19198242 -22.46020508 15.40178711 -21.92895508 14.58764648 C-21.45458008 13.9959668 -20.98020508 13.40428711 -20.49145508 12.79467773 C-19.83145508 12.79467773 -19.17145508 12.79467773 -18.49145508 12.79467773 C-18.15114258 11.77374023 -18.15114258 11.77374023 -17.80395508 10.73217773 C-13.59663165 1.31578721 -10.40325733 -0.23915534 0 0 Z M95.50854492 7.79467773 C96.16854492 7.79467773 96.82854492 7.79467773 97.50854492 7.79467773 C97.50854492 8.45467773 97.50854492 9.11467773 97.50854492 9.79467773 C96.51854492 10.12467773 95.52854492 10.45467773 94.50854492 10.79467773 C94.83854492 9.80467773 95.16854492 8.81467773 95.50854492 7.79467773 Z " fill="#C2C5DF" transform="translate(650.491455078125,267.205322265625)"/>
<path d="M0 0 C2.64 0.33 5.28 0.66 8 1 C7.52949219 1.72445313 7.05898438 2.44890625 6.57421875 3.1953125 C5.95160156 4.16210938 5.32898438 5.12890625 4.6875 6.125 C4.07261719 7.07632812 3.45773437 8.02765625 2.82421875 9.0078125 C1.05356887 11.91213329 -0.47879782 14.95759565 -2 18 C35.62 18 73.24 18 112 18 C111.34 19.98 110.68 21.96 110 24 C109.34 24 108.68 24 108 24 C107.63261719 24.96486328 107.63261719 24.96486328 107.2578125 25.94921875 C105.59995748 29.97028946 103.73899262 33.8836251 101.875 37.8125 C101.50246094 38.60076172 101.12992188 39.38902344 100.74609375 40.20117188 C99.83204476 42.13473705 98.91620158 44.06745388 98 46 C97.34 46 96.68 46 96 46 C95.62875 47.2375 95.62875 47.2375 95.25 48.5 C93.81295189 52.52373471 91.97645485 56.21979024 90 60 C89.34 60 88.68 60 88 60 C87.62875 61.0209375 87.62875 61.0209375 87.25 62.0625 C85.75802092 65.56865083 83.93164489 68.71620368 82 72 C80.5393715 69.35261084 80 68.10551666 80 65 C81.3125 63.5625 81.3125 63.5625 83 62 C88.04377549 55.73369663 88.04377549 55.73369663 89 48 C89.99 48 90.98 48 92 48 C92.0825 46.88625 92.165 45.7725 92.25 44.625 C93 41 93 41 95.0625 39.5625 C95.701875 39.376875 96.34125 39.19125 97 39 C97.15149298 35.37114676 97.15149298 35.37114676 96 32 C97.175625 31.4121875 97.175625 31.4121875 98.375 30.8125 C101.35156418 28.75725331 101.98823563 27.40320742 103 24 C101.68 23.67 100.36 23.34 99 23 C98.67 23.66 98.34 24.32 98 25 C97.48026108 24.34969315 96.96052216 23.69938629 96.42503357 23.02937317 C93.20723384 20.33657893 91.36145554 20.51000989 87.19946289 20.5300293 C86.18650902 20.5267437 86.18650902 20.5267437 85.15309143 20.52339172 C82.92577759 20.52108451 80.6997934 20.54731655 78.47265625 20.57421875 C76.92093831 20.57914467 75.36921441 20.58244224 73.81748962 20.58418274 C70.56669098 20.59181953 67.31633312 20.61236677 64.06567383 20.64331055 C59.90507851 20.68285201 55.74476999 20.70091539 51.58400822 20.71061993 C47.6093523 20.72061207 43.63476567 20.74048026 39.66015625 20.76171875 C38.52658031 20.76681237 38.52658031 20.76681237 37.37010384 20.7720089 C35.22329696 20.78363335 33.0766666 20.80216278 30.92993164 20.82299805 C29.70955704 20.83284225 28.48918243 20.84268646 27.23182678 20.85282898 C24.36030981 20.9835922 21.79512981 21.36910043 19 22 C15.8346854 22.20596699 12.67144184 22.18507164 9.5 22.1875 C8.65824219 22.19974609 7.81648437 22.21199219 6.94921875 22.22460938 C2.51532459 22.23508314 -0.96928554 22.08969418 -5 20 C-5 19.34 -5 18.68 -5 18 C-5.99 17.67 -6.98 17.34 -8 17 C-7.34 16.67 -6.68 16.34 -6 16 C-5.525625 15.01 -5.05125 14.02 -4.5625 13 C-3 10 -3 10 0 9 C0 6.03 0 3.06 0 0 Z " fill="#C1BBD8" transform="translate(656,424)"/>
<path d="M0 0 C5.75 -0.125 5.75 -0.125 8 1 C6.54463409 4.29684931 4.69493267 6.61553766 2.25 9.25 C-1.04070685 12.85781133 -3.98017073 16.56376421 -6.7734375 20.56640625 C-7.17820312 21.03949219 -7.58296875 21.51257813 -8 22 C-8.66 22 -9.32 22 -10 22 C-10.33451172 22.79857422 -10.33451172 22.79857422 -10.67578125 23.61328125 C-12.45155953 26.81387277 -14.79458825 29.44196974 -17.1875 32.1875 C-20.44751424 35.97715389 -23.65667292 39.77203946 -26.6875 43.75 C-29.6069843 47.56618305 -32.75019876 51.12233555 -35.96875 54.6875 C-38.04110487 57.04679631 -39.99484263 59.47063349 -41.9375 61.9375 C-44.61599528 65.32991329 -47.38653055 68.56891934 -50.3125 71.75 C-54.50813626 76.33829546 -58.33818158 81.15113859 -62.10668945 86.09082031 C-64.85929827 89.66967165 -67.73942576 92.87430563 -71 96 C-71.625 93.6875 -71.625 93.6875 -72 91 C-70 88 -70 88 -68 87.1875 C-65.0855585 85.45705036 -65.00077874 83.1357734 -64 80 C-62.515 79.505 -62.515 79.505 -61 79 C-60.731875 78.236875 -60.46375 77.47375 -60.1875 76.6875 C-58.59468444 73.08270689 -56.25430753 72.14784297 -53 70 C-51.63178949 68.02369593 -50.29048808 66.02790984 -49 64 C-48.34 64 -47.68 64 -47 64 C-46.67 62.35 -46.34 60.7 -46 59 C-45.34 59 -44.68 59 -44 59 C-44 58.34 -44 57.68 -44 57 C-44.66 56.67 -45.32 56.34 -46 56 C-44.02 56 -42.04 56 -40 56 C-40.020625 55.05125 -40.04125 54.1025 -40.0625 53.125 C-40 50 -40 50 -39 48 C-35.9375 47.375 -35.9375 47.375 -33 47 C-32.67 44.69 -32.34 42.38 -32 40 C-31.030625 39.71125 -30.06125 39.4225 -29.0625 39.125 C-25.89335797 38.35785318 -25.89335797 38.35785318 -25 36 C-24.7275833 33.44014782 -24.55435019 30.88070064 -24.37890625 28.3125 C-24 26 -24 26 -22 24 C-20.32706064 24.30027117 -18.66014616 24.63557767 -17 25 C-16.01 24.67 -15.02 24.34 -14 24 C-13.566875 22.2984375 -13.566875 22.2984375 -13.125 20.5625 C-12.75375 19.386875 -12.3825 18.21125 -12 17 C-10.35448038 16.28272222 -8.68577711 15.61674772 -7 15 C-5.98377342 13.00819591 -4.98287008 11.00847365 -4 9 C-1.8125 8.125 -1.8125 8.125 0 8 C0 5.36 0 2.72 0 0 Z " fill="#F3DBA5" transform="translate(648,608)"/>
<path d="M0 0 C0.33 0 0.66 0 1 0 C1.33 32.67 1.66 65.34 2 99 C34.34 99 66.68 99 100 99 C100.33 85.8 100.66 72.6 101 59 C101.33 59 101.66 59 102 59 C102 73.19 102 87.38 102 102 C68.34 102 34.68 102 0 102 C0 68.34 0 34.68 0 0 Z " fill="#E2E2E2" transform="translate(651,653)"/>
<path d="M0 0 C0.495 0.99 0.495 0.99 1 2 C1.66 2 2.32 2 3 2 C-3.16350368 14.9495835 -11.93421404 27.43890296 -20.984375 38.484375 C-23.83813182 42.04604048 -26.48689035 45.74509249 -29.140625 49.45703125 C-30.43196814 51.2231329 -31.78086831 52.9479966 -33.171875 54.63671875 C-35.16500424 56.94445937 -35.16500424 56.94445937 -36 60 C-37.9375 62.1875 -37.9375 62.1875 -40 64 C-40.66 64 -41.32 64 -42 64 C-42.25136719 64.56074219 -42.50273438 65.12148438 -42.76171875 65.69921875 C-44.18821979 68.34972069 -45.8992102 70.48948083 -47.8125 72.8125 C-50.24156964 75.79063602 -52.58262964 78.76409168 -54.75 81.9375 C-56.70167976 84.59395301 -58.24059201 86.26259497 -61 88 C-62 87 -62 87 -62.0625 83.4375 C-62.041875 82.303125 -62.02125 81.16875 -62 80 C-61.05125 79.773125 -60.1025 79.54625 -59.125 79.3125 C-55.87882655 78.32770003 -55.87882655 78.32770003 -54.75 75.75 C-54.5025 74.8425 -54.255 73.935 -54 73 C-53.62875 71.906875 -53.2575 70.81375 -52.875 69.6875 C-52.58625 68.800625 -52.2975 67.91375 -52 67 C-51.21625 66.896875 -50.4325 66.79375 -49.625 66.6875 C-46.66954819 66.22404978 -46.66954819 66.22404978 -45 63 C-44.60612212 60.67612053 -44.26513915 58.34206251 -44 56 C-42.35 56 -40.7 56 -39 56 C-38.02391783 53.07175348 -37.91773332 51.04386724 -38 48 C-37.236875 48.185625 -36.47375 48.37125 -35.6875 48.5625 C-32.91032625 49.22819173 -32.91032625 49.22819173 -30 48 C-29.9175 47.278125 -29.835 46.55625 -29.75 45.8125 C-28.83214656 42.3705496 -27.28476347 40.72902303 -25 38 C-23.2727731 35.36990449 -21.62958331 32.69148391 -20 30 C-20.66 30 -21.32 30 -22 30 C-21.125 25.125 -21.125 25.125 -20 24 C-18.33382885 23.95936168 -16.66611905 23.957279 -15 24 C-14.67 21.36 -14.34 18.72 -14 16 C-12.02 15.67 -10.04 15.34 -8 15 C-7.690625 14.05125 -7.38125 13.1025 -7.0625 12.125 C-6 9 -6 9 -5 7 C-4.34 7 -3.68 7 -3 7 C-3.495 5.02 -3.495 5.02 -4 3 C-3.01 3 -2.02 3 -1 3 C-0.67 2.01 -0.34 1.02 0 0 Z " fill="#EECA93" transform="translate(718,520)"/>
<path d="M0 0 C0.99 1.32 1.98 2.64 3 4 C2.52626953 4.81597656 2.52626953 4.81597656 2.04296875 5.6484375 C0.83248381 8.37769568 0.556675 10.6548713 0.3125 13.625 C0.22613281 14.58664062 0.13976562 15.54828125 0.05078125 16.5390625 C-0.19115504 19.00566568 -0.19115504 19.00566568 1 21 C-0.32 21.33 -1.64 21.66 -3 22 C-2.87625 23.0828125 -2.87625 23.0828125 -2.75 24.1875 C-3 27 -3 27 -4.96875 29.25 C-7.45047468 32.60987342 -7.58303801 34.68019073 -7.75 38.8125 C-7.80671875 39.97394531 -7.8634375 41.13539063 -7.921875 42.33203125 C-7.94765625 43.21246094 -7.9734375 44.09289062 -8 45 C-8.91845703 45.10054687 -8.91845703 45.10054687 -9.85546875 45.203125 C-12.1870288 45.81931469 -12.1870288 45.81931469 -13.30078125 48.109375 C-13.63464844 48.98078125 -13.96851563 49.8521875 -14.3125 50.75 C-14.83263672 52.04164063 -14.83263672 52.04164063 -15.36328125 53.359375 C-16.07535163 56.31250124 -15.68904742 58.08139201 -15 61 C-15.9375 63.3125 -15.9375 63.3125 -17 65 C-16.34 65 -15.68 65 -15 65 C-15.66 66.32 -16.32 67.64 -17 69 C-17.33 68.34 -17.66 67.68 -18 67 C-22.94469884 72.32506029 -24 75.63393567 -24 83 C-24 83.66 -24 84.32 -24 85 C-24.66 85 -25.32 85 -26 85 C-25.67 86.65 -25.34 88.3 -25 90 C-25.99 90 -26.98 90 -28 90 C-30.10820797 90.3185177 -30.10820797 90.3185177 -32 91 C-32.495 91.99 -32.495 91.99 -33 93 C-32.34309381 89.21760329 -31.279869 85.78158474 -29.9375 82.1875 C-29.57527344 81.21167969 -29.21304688 80.23585938 -28.83984375 79.23046875 C-28.56269531 78.49441406 -28.28554688 77.75835938 -28 77 C-27.34 77 -26.68 77 -26 77 C-25.79375 75.700625 -25.5875 74.40125 -25.375 73.0625 C-23.00127457 61.09140988 -17.89519817 49.54246149 -13.53515625 38.17578125 C-10.35907191 29.8648502 -7.48810783 21.5473822 -5 13 C-4.34 13 -3.68 13 -3 13 C-2.87625 11.783125 -2.7525 10.56625 -2.625 9.3125 C-2.21108694 5.93520941 -1.45426549 3.10243305 0 0 Z " fill="#F7DEA3" transform="translate(591,571)"/>
<path d="M0 0 C2 3 2 3 3 6 C2.38640625 6.24105469 1.7728125 6.48210937 1.140625 6.73046875 C-2.62491127 8.96367913 -3.66944297 12.98060897 -5 17 C-5.34202694 19.87911042 -5.34202694 19.87911042 -5 22 C-7.31 22.33 -9.62 22.66 -12 23 C-12.33 25.31 -12.66 27.62 -13 30 C-13.99 30 -14.98 30 -16 30 C-16.33 30.99 -16.66 31.98 -17 33 C-16.34 33 -15.68 33 -15 33 C-15.33 33.99 -15.66 34.98 -16 36 C-16.9590625 36.185625 -16.9590625 36.185625 -17.9375 36.375 C-18.618125 36.58125 -19.29875 36.7875 -20 37 C-21.12085312 39.3430809 -21.12085312 39.3430809 -22 42 C-23.93391627 45.02699938 -24.51236025 45.83745342 -28 47 C-28.33 47.66 -28.66 48.32 -29 49 C-30.32 49 -31.64 49 -33 49 C-33 49.66 -33 50.32 -33 51 C-32.34 51.33 -31.68 51.66 -31 52 C-33.97 54.475 -33.97 54.475 -37 57 C-37.495 55.515 -37.495 55.515 -38 54 C-36.50397378 51.4579717 -34.96978322 49.13425775 -33.25 46.75 C-32.74774902 46.03690674 -32.24549805 45.32381348 -31.72802734 44.58911133 C-27.98619553 39.30113078 -24.1453727 34.08522345 -20.28613281 28.88256836 C-15.80635961 22.81255538 -11.55985644 16.58804548 -7.32666016 10.34448242 C-6.54621338 9.19363159 -6.54621338 9.19363159 -5.75 8.01953125 C-5.29109375 7.33995361 -4.8321875 6.66037598 -4.359375 5.96020508 C-2.95454438 3.93445346 -1.49086316 1.96306118 0 0 Z " fill="#D3B7B1" transform="translate(573,362)"/>
<path d="M0 0 C0.66 0.33 1.32 0.66 2 1 C0.35 4.3 -1.3 7.6 -3 11 C-3.66 11 -4.32 11 -5 11 C-5.21398437 11.7940625 -5.42796875 12.588125 -5.6484375 13.40625 C-7.42953096 18.14210543 -9.97280175 22.20588702 -12.625 26.5 C-13.70690899 28.2753232 -14.78763182 30.05136979 -15.8671875 31.828125 C-16.39795898 32.70017578 -16.92873047 33.57222656 -17.47558594 34.47070312 C-20.75867624 39.917983 -23.88031033 45.45796305 -27 51 C-27.99 50.67 -28.98 50.34 -30 50 C-30.33 47.69 -30.66 45.38 -31 43 C-29.68 43 -28.36 43 -27 43 C-26.566875 42.13375 -26.566875 42.13375 -26.125 41.25 C-24.5625 38.125 -24.5625 38.125 -23 35 C-22.34 35 -21.68 35 -21 35 C-21.33 33.35 -21.66 31.7 -22 30 C-21.030625 29.484375 -20.06125 28.96875 -19.0625 28.4375 C-15.6894423 26.26824745 -15.6894423 26.26824745 -15.1875 22.5625 C-15.125625 21.386875 -15.06375 20.21125 -15 19 C-14.814375 18.0925 -14.62875 17.185 -14.4375 16.25 C-13.90456517 13.89121566 -13.90456517 13.89121566 -14 11 C-12.02 11 -10.04 11 -8 11 C-7.71125 10.05125 -7.4225 9.1025 -7.125 8.125 C-6 5 -6 5 -4 3 C-3.01 3 -2.02 3 -1 3 C-0.67 2.01 -0.34 1.02 0 0 Z " fill="#C5C7EA" transform="translate(727,317)"/>
<path d="M0 0 C0.99 0.33 1.98 0.66 3 1 C2.67 3.97 2.34 6.94 2 10 C0.35 10 -1.3 10 -3 10 C-4.90912634 13.20673565 -5.17676673 15.4239465 -5 19.125 C-4.875 21.7578125 -4.875 21.7578125 -5 24 C-5.66 24.66 -6.32 25.32 -7 26 C-8.66666667 25.66666667 -10.33333333 25.33333333 -12 25 C-12.66 25.66 -13.32 26.32 -14 27 C-14.66 27.66 -15.32 28.32 -16 29 C-15.01 29.66 -14.02 30.32 -13 31 C-15 34 -15 34 -17.4375 34.5 C-18.7059375 34.7475 -18.7059375 34.7475 -20 35 C-21.79385992 36.4579186 -21.79385992 36.4579186 -23 38 C-23.99 37.67 -24.98 37.34 -26 37 C-25.45472656 36.21238281 -24.90945313 35.42476563 -24.34765625 34.61328125 C-23.98792725 34.09362793 -23.62819824 33.57397461 -23.25756836 33.03857422 C-22.44995709 31.87211627 -21.64217263 30.70577821 -20.83422852 29.53955078 C-18.77873877 26.57205409 -16.72555802 23.6030445 -14.6796875 20.62890625 C-9.88746154 13.67433443 -5.00390113 6.80366938 0 0 Z " fill="#BBB7CF" transform="translate(621,294)"/>
<path d="M0 0 C2.64 0 5.28 0 8 0 C3.92668956 5.77880221 -0.63472699 10.95243209 -5.42578125 16.14453125 C-8.65462164 19.72614328 -11.66279641 23.46097054 -14.6875 27.21484375 C-17.99790757 31.20187179 -21.50340384 34.99054394 -25.03125 38.78515625 C-27.02671788 40.83679121 -27.02671788 40.83679121 -28 43 C-28.99 42.67 -29.98 42.34 -31 42 C-30.525625 41.5875 -30.05125 41.175 -29.5625 40.75 C-27.83733482 38.817815 -27.43415125 37.51807725 -27 35 C-26.01 35 -25.02 35 -24 35 C-24 34.34 -24 33.68 -24 33 C-23.34 33 -22.68 33 -22 33 C-22 32.236875 -22 31.47375 -22 30.6875 C-22 28.79166667 -22 26.89583333 -22 25 C-21.01 25 -20.02 25 -19 25 C-17.31763529 24.37400383 -15.6476038 23.71247732 -14 23 C-14.350625 22.38125 -14.70125 21.7625 -15.0625 21.125 C-15.371875 20.42375 -15.68125 19.7225 -16 19 C-15.67 18.34 -15.34 17.68 -15 17 C-12.4375 16.375 -12.4375 16.375 -10 16 C-9.40267181 13.23735711 -9 10.83967231 -9 8 C-8.2575 8.04125 -7.515 8.0825 -6.75 8.125 C-3.91241048 7.99601866 -2.41226062 7.42948778 0 6 C0 4.02 0 2.04 0 0 Z " fill="#EDD088" transform="translate(569,704)"/>
<path d="M0 0 C0.66 0.66 1.32 1.32 2 2 C1.45652174 8.08695652 1.45652174 8.08695652 0 11 C0.185625 11.78375 0.37125 12.5675 0.5625 13.375 C1.06525738 16.39154426 0.59671264 17.46404463 -1 20 C-0.34 20 0.32 20 1 20 C0.34 21.32 -0.32 22.64 -1 24 C-1.33 23.34 -1.66 22.68 -2 22 C-6.94469884 27.32506029 -8 30.63393567 -8 38 C-8 38.66 -8 39.32 -8 40 C-8.66 40 -9.32 40 -10 40 C-9.67 41.65 -9.34 43.3 -9 45 C-9.99 45 -10.98 45 -12 45 C-14.10820797 45.3185177 -14.10820797 45.3185177 -16 46 C-16.33 46.66 -16.66 47.32 -17 48 C-16.34309381 44.21760329 -15.279869 40.78158474 -13.9375 37.1875 C-13.57527344 36.21167969 -13.21304688 35.23585938 -12.83984375 34.23046875 C-12.56269531 33.49441406 -12.28554688 32.75835938 -12 32 C-11.34 32 -10.68 32 -10 32 C-9.79375 30.700625 -9.5875 29.40125 -9.375 28.0625 C-7.47059779 18.43008884 -3.70667537 9.07066232 0 0 Z " fill="#E6CD94" transform="translate(575,616)"/>
<path d="M0 0 C0.33 0.66 0.66 1.32 1 2 C1.66 2 2.32 2 3 2 C-2.62482194 13.81780771 -10.55950963 26.99973975 -20 36 C-20.66 35.67 -21.32 35.34 -22 35 C-21.34 33.35 -20.68 31.7 -20 30 C-20.66 30 -21.32 30 -22 30 C-21.125 25.125 -21.125 25.125 -20 24 C-18.33382885 23.95936168 -16.66611905 23.957279 -15 24 C-14.67 21.36 -14.34 18.72 -14 16 C-12.02 15.67 -10.04 15.34 -8 15 C-7.690625 14.05125 -7.38125 13.1025 -7.0625 12.125 C-6 9 -6 9 -5 7 C-4.34 7 -3.68 7 -3 7 C-3.33 5.68 -3.66 4.36 -4 3 C-3.01 3 -2.02 3 -1 3 C-0.67 2.01 -0.34 1.02 0 0 Z " fill="#DCB19C" transform="translate(718,520)"/>
<path d="M0 0 C0.99 0.33 1.98 0.66 3 1 C2.42869785 4.78472005 1.38356059 7.3998173 -0.66015625 10.625 C-1.20309326 11.49084717 -1.74603027 12.35669434 -2.30541992 13.2487793 C-2.88525635 14.15668213 -3.46509277 15.06458496 -4.0625 16 C-5.24761146 17.88137461 -6.43250753 19.76288491 -7.6171875 21.64453125 C-8.1956543 22.55799316 -8.77412109 23.47145508 -9.37011719 24.41259766 C-12.13893219 28.80802927 -14.8204647 33.25605629 -17.51171875 37.69921875 C-19 40 -19 40 -21 42 C-21.8252404 38.69903842 -22.37001429 36.1967 -21 33 C-19.515 32.505 -19.515 32.505 -18 32 C-16.87952058 30.16610178 -16.87952058 30.16610178 -16 28 C-15.65839844 27.34 -15.31679688 26.68 -14.96484375 26 C-14.62582031 25.34 -14.28679688 24.68 -13.9375 24 C-13.59589844 23.34 -13.25429688 22.68 -12.90234375 22 C-12.00591154 20.01310263 -11.46035098 18.12615708 -11 16 C-10.38125 15.95875 -9.7625 15.9175 -9.125 15.875 C-8.42375 15.58625 -7.7225 15.2975 -7 15 C-5.6954344 12.00384054 -5.6954344 12.00384054 -5 9 C-4.34 9 -3.68 9 -3 9 C-3.2475 8.2575 -3.495 7.515 -3.75 6.75 C-3.87375 5.38875 -3.87375 5.38875 -4 4 C-2.0625 1.6875 -2.0625 1.6875 0 0 Z " fill="#C5C1E1" transform="translate(694,368)"/>
<path d="M0 0 C3.3 0 6.6 0 10 0 C10 5.13570273 8.98550034 7.39821347 6.4375 11.5625 C6.07978516 12.16658691 5.72207031 12.77067383 5.35351562 13.39306641 C4.61218413 14.64398158 3.86653497 15.89234753 3.11669922 17.13818359 C1.38052437 20.03282055 -0.30635799 22.95528587 -2 25.875 C-2.99935157 27.58371273 -3.99909103 29.29219907 -5 31 C-5.99 30.67 -6.98 30.34 -8 30 C-7.814375 29.4225 -7.62875 28.845 -7.4375 28.25 C-6.83047719 26.02785506 -6.83047719 26.02785506 -7.5625 24 C-8 22 -8 22 -7.375 19.8125 C-6 18 -6 18 -3.375 17.25 C-2.59125 17.1675 -1.8075 17.085 -1 17 C-0.814375 15.2984375 -0.814375 15.2984375 -0.625 13.5625 C-0.41875 12.386875 -0.2125 11.21125 0 10 C0.66 9.67 1.32 9.34 2 9 C2.66 9.33 3.32 9.66 4 10 C3.67 9.01 3.34 8.02 3 7 C3.4375 4.3125 3.4375 4.3125 4 2 C3.34 2 2.68 2 2 2 C1.67 2.66 1.34 3.32 1 4 C0.67 2.68 0.34 1.36 0 0 Z M2 4 C2.66 4 3.32 4 4 4 C4 4.66 4 5.32 4 6 C3.01 6.33 2.02 6.66 1 7 C1.33 6.01 1.66 5.02 2 4 Z " fill="#C7CFED" transform="translate(744,271)"/>
<path d="M0 0 C0.33 0 0.66 0 1 0 C1.55877857 4.47022854 0.0713462 7.23645222 -2.02734375 11.03515625 C-3.08372738 12.9711721 -3.08372738 12.9711721 -3.47265625 15.14453125 C-4 17 -4 17 -6.5 18.625 C-7.325 19.07875 -8.15 19.5325 -9 20 C-9.33 20.66 -9.66 21.32 -10 22 C-11.32 22 -12.64 22 -14 22 C-14 22.66 -14 23.32 -14 24 C-13.34 24.33 -12.68 24.66 -12 25 C-13.98 26.65 -15.96 28.3 -18 30 C-18.33 29.01 -18.66 28.02 -19 27 C-17.43976656 24.37856733 -15.84276136 21.96524138 -14.0625 19.5 C-13.56121582 18.79037109 -13.05993164 18.08074219 -12.54345703 17.34960938 C-11.03886298 15.22581515 -9.52030079 13.11256675 -8 11 C-7.17249636 9.83381607 -6.34561218 8.66719216 -5.51953125 7.5 C-1.61688728 2.04056362 -1.61688728 2.04056362 0 0 Z " fill="#DCBEAF" transform="translate(554,389)"/>
<path d="M0 0 C1.65 1.65 3.3 3.3 5 5 C4.67 5.66 4.34 6.32 4 7 C3.01 6.34 2.02 5.68 1 5 C1 41.3 1 77.6 1 115 C0.67 115 0.34 115 0 115 C0 77.05 0 39.1 0 0 Z " fill="#767676" transform="translate(368,421)"/>
<path d="M0 0 C0.33 0 0.66 0 1 0 C1 2.64 1 5.28 1 8 C1.66 8 2.32 8 3 8 C3.125 14.75 3.125 14.75 2 17 C1.76827173 19.54615009 1.58105471 22.07396225 1.4375 24.625 C1.39431641 25.33140625 1.35113281 26.0378125 1.30664062 26.765625 C1.20055249 28.51018537 1.09977111 30.25506697 1 32 C1.66 32 2.32 32 3 32 C3 34.64 3 37.28 3 40 C2.34 40 1.68 40 1 40 C1 42.64 1 45.28 1 48 C1.66 48 2.32 48 3 48 C3 50.31 3 52.62 3 55 C2.34 55 1.68 55 1 55 C0.67 55.66 0.34 56.32 0 57 C0 38.19 0 19.38 0 0 Z " fill="#F3F3F3" transform="translate(267,368)"/>
<path d="M0 0 C0.99 1.32 1.98 2.64 3 4 C2.68417969 4.54398438 2.36835937 5.08796875 2.04296875 5.6484375 C0.83248381 8.37769568 0.556675 10.6548713 0.3125 13.625 C0.22613281 14.58664062 0.13976562 15.54828125 0.05078125 16.5390625 C-0.19115504 19.00566568 -0.19115504 19.00566568 1 21 C0.071875 21.12375 0.071875 21.12375 -0.875 21.25 C-3.18437567 21.81258459 -3.18437567 21.81258459 -4.25 24.0625 C-4.4975 24.701875 -4.745 25.34125 -5 26 C-5.99 25.34 -6.98 24.68 -8 24 C-6.515 18.555 -6.515 18.555 -5 13 C-4.34 13 -3.68 13 -3 13 C-2.814375 11.1746875 -2.814375 11.1746875 -2.625 9.3125 C-2.21108694 5.93520941 -1.45426549 3.10243305 0 0 Z " fill="#E0CA9A" transform="translate(591,571)"/>
<path d="M0 0 C0.33 0.99 0.66 1.98 1 3 C-0.40625 5.3828125 -0.40625 5.3828125 -2.5 8.125 C-3.23347656 9.09695313 -3.96695313 10.06890625 -4.72265625 11.0703125 C-7.34252449 14.44064043 -9.97147709 17.80292377 -12.65234375 21.125 C-14.18590455 23.06287372 -14.18590455 23.06287372 -15 26 C-15.66 25.67 -16.32 25.34 -17 25 C-17 21.33333333 -17 17.66666667 -17 14 C-15.8553125 14.2784375 -15.8553125 14.2784375 -14.6875 14.5625 C-11.91032625 15.22819173 -11.91032625 15.22819173 -9 14 C-8.9175 13.278125 -8.835 12.55625 -8.75 11.8125 C-7.40921274 6.78454777 -3.66488175 3.53399312 0 0 Z " fill="#DFBA93" transform="translate(697,554)"/>
<path d="M0 0 C0 0.99 0 1.98 0 3 C0.12375 4.7325 0.12375 4.7325 0.25 6.5 C0 10 0 10 -1.875 11.8125 C-2.57625 12.204375 -3.2775 12.59625 -4 13 C-4.66 13.66 -5.32 14.32 -6 15 C-5.01 15.66 -4.02 16.32 -3 17 C-5 20 -5 20 -7.4375 20.5 C-8.7059375 20.7475 -8.7059375 20.7475 -10 21 C-11.79385992 22.4579186 -11.79385992 22.4579186 -13 24 C-13.99 23.67 -14.98 23.34 -16 23 C-10.68949072 15.31722241 -5.36631229 7.64397539 0 0 Z " fill="#C6BED4" transform="translate(611,308)"/>
<path d="M0 0 C2.64 0.33 5.28 0.66 8 1 C7.52949219 1.72445313 7.05898438 2.44890625 6.57421875 3.1953125 C1.93179183 10.40010298 1.93179183 10.40010298 -2 18 C-1.34 18 -0.68 18 0 18 C-0.33 18.99 -0.66 19.98 -1 21 C-2.32 20.67 -3.64 20.34 -5 20 C-5 19.34 -5 18.68 -5 18 C-5.99 17.67 -6.98 17.34 -8 17 C-7.34 16.67 -6.68 16.34 -6 16 C-5.525625 15.01 -5.05125 14.02 -4.5625 13 C-3 10 -3 10 0 9 C0 6.03 0 3.06 0 0 Z " fill="#D0BCCA" transform="translate(656,424)"/>
<path d="M0 0 C5.75 -0.125 5.75 -0.125 8 1 C6.54463409 4.29684931 4.69493267 6.61553766 2.25 9.25 C-1.44703491 13.31808769 -4.79159095 17.5398253 -8 22 C-9.25901921 18.22294237 -8.54474507 17.35980972 -6.8125 13.875 C-6.38582031 12.98554687 -5.95914063 12.09609375 -5.51953125 11.1796875 C-4 9 -4 9 -1.82421875 8.1953125 C-1.22222656 8.13085938 -0.62023437 8.06640625 0 8 C0 5.36 0 2.72 0 0 Z " fill="#ECD9A7" transform="translate(648,608)"/>
<path d="M0 0 C3.63 0 7.26 0 11 0 C11 4.29 11 8.58 11 13 C10.34 13 9.68 13 9 13 C6.96657707 8.81354102 7.01515423 7.92422885 8 3 C-1.9 3 -11.8 3 -22 3 C-22 2.67 -22 2.34 -22 2 C-14.74 1.67 -7.48 1.34 0 1 C0 0.67 0 0.34 0 0 Z " fill="#D1BD97" transform="translate(597,528)"/>
<path d="M0 0 C1.32 0 2.64 0 4 0 C2.8905928 3.48670834 1.73662334 6.77484237 0 10 C-0.66 10 -1.32 10 -2 10 C-2.2475 10.680625 -2.495 11.36125 -2.75 12.0625 C-4.24197908 15.56865083 -6.06835511 18.71620368 -8 22 C-9.4606285 19.35261084 -10 18.10551666 -10 15 C-8.6875 13.5625 -8.6875 13.5625 -7 12 C-4.0257202 8.28215025 -1.5112953 4.53388589 0 0 Z " fill="#C4B8CD" transform="translate(746,474)"/>
<path d="M0 0 C2 1 2 1 3 2 C3.66 2.33 4.32 2.66 5 3 C5.59355614 5.64860427 5.74209269 8.29197322 6 11 C7.32 11.33 8.64 11.66 10 12 C10 12.66 10 13.32 10 14 C10.66 14 11.32 14 12 14 C13.125 16.8125 13.125 16.8125 14 20 C13.34 20.99 12.68 21.98 12 23 C10.55943648 21.10642909 9.1225099 19.21027278 7.6875 17.3125 C7.28337891 16.78205078 6.87925781 16.25160156 6.46289062 15.70507812 C-0.45600905 6.53612977 -0.45600905 6.53612977 0 0 Z " fill="#F1F1F0" transform="translate(411,477)"/>
<path d="M0 0 C0.66 1.32 1.32 2.64 2 4 C-0.53363068 8.22271781 -2.56620325 10.78310162 -7 13 C-6.34 13.33 -5.68 13.66 -5 14 C-5.66 16.31 -6.32 18.62 -7 21 C-7.66 21 -8.32 21 -9 21 C-9.66 18.69 -10.32 16.38 -11 14 C-10.34 14 -9.68 14 -9 14 C-8.74476563 13.27425781 -8.48953125 12.54851562 -8.2265625 11.80078125 C-6.93198926 8.8447016 -5.39544896 6.69435334 -3.375 4.1875 C-2.74335937 3.39730469 -2.11171875 2.60710937 -1.4609375 1.79296875 C-0.97882812 1.20128906 -0.49671875 0.60960937 0 0 Z " fill="#D6C3AA" transform="translate(534,418)"/>
<path d="M0 0 C2 3 2 3 3 6 C2.39671875 6.23460937 1.7934375 6.46921875 1.171875 6.7109375 C-1.53132927 8.3153573 -2.32315896 9.85058687 -3.75 12.625 C-4.17796875 13.44226563 -4.6059375 14.25953125 -5.046875 15.1015625 C-5.36140625 15.72804688 -5.6759375 16.35453125 -6 17 C-7.32 16.67 -8.64 16.34 -10 16 C-8.55797524 11.84848662 -6.4989562 8.70021555 -3.875 5.1875 C-3.15054688 4.21167969 -2.42609375 3.23585938 -1.6796875 2.23046875 C-0.84824219 1.12638672 -0.84824219 1.12638672 0 0 Z " fill="#C5AEB5" transform="translate(573,362)"/>
<path d="M0 0 C0.66 0.33 1.32 0.66 2 1 C4.40838678 1.08639869 6.78733881 1.11567764 9.1953125 1.09765625 C9.90275604 1.0962413 10.61019958 1.09482635 11.33908081 1.09336853 C13.60109669 1.087766 15.86301398 1.07521318 18.125 1.0625 C19.65755065 1.05748532 21.19010286 1.05292236 22.72265625 1.04882812 C26.48180888 1.03779577 30.24088772 1.02052952 34 1 C34 1.33 34 1.66 34 2 C18.655 2.495 18.655 2.495 3 3 C2.67 3.66 2.34 4.32 2 5 C1.34 5 0.68 5 0 5 C-0.33 6.32 -0.66 7.64 -1 9 C-2.32 9 -3.64 9 -5 9 C-3.7508258 5.54074837 -2.32472205 2.85306797 0 0 Z " fill="#B9BAE3" transform="translate(638,269)"/>
<path d="M0 0 C0.15082031 0.62003906 0.30164063 1.24007812 0.45703125 1.87890625 C0.9629408 3.98803465 0.9629408 3.98803465 1.6875 5.9375 C2.12000312 8.79202057 1.18173727 10.38773867 0 13 C-0.67795528 14.99620166 -1.34733531 16.99538701 -2 19 C-2.66 19 -3.32 19 -4 19 C-4 20.65 -4 22.3 -4 24 C-4.99 24 -5.98 24 -7 24 C-7.33 25.32 -7.66 26.64 -8 28 C-8.33 27.34 -8.66 26.68 -9 26 C-8.15110333 23.63564344 -7.24322568 21.36538978 -6.25 19.0625 C-3.64039671 12.81318685 -1.56457595 6.60141256 0 0 Z " fill="#CFBD92" transform="translate(602,539)"/>
<path d="M0 0 C2.475 0.495 2.475 0.495 5 1 C5.15855469 1.59167969 5.31710937 2.18335938 5.48046875 2.79296875 C7.08411051 8.22408696 8.82336853 11.04913239 13 15 C13 16.32 13 17.64 13 19 C12.34 19 11.68 19 11 19 C8.89158134 16.57735788 7.17513017 13.8442911 5.375 11.1875 C4.859375 10.44951172 4.34375 9.71152344 3.8125 8.95117188 C3.32523437 8.23896484 2.83796875 7.52675781 2.3359375 6.79296875 C1.88782715 6.1383667 1.4397168 5.48376465 0.97802734 4.80932617 C0 3 0 3 0 0 Z " fill="#F1F1F1" transform="translate(378,432)"/>
<path d="M0 0 C2.3431213 0.25561323 4.67843403 0.59270772 7 1 C7.33 1.66 7.66 2.32 8 3 C6.78515625 5.3828125 6.78515625 5.3828125 5.0625 8.125 C4.49660156 9.03507812 3.93070313 9.94515625 3.34765625 10.8828125 C2.90292969 11.58148438 2.45820312 12.28015625 2 13 C1.01 12.67 0.02 12.34 -1 12 C-0.67 8.04 -0.34 4.08 0 0 Z " fill="#C5B9D2" transform="translate(665,408)"/>
<path d="M0 0 C0.33 0.66 0.66 1.32 1 2 C1.66 2 2.32 2 3 2 C1.46162154 5.19624262 -0.28866532 8.21605574 -2.125 11.25 C-2.66382813 12.14203125 -3.20265625 13.0340625 -3.7578125 13.953125 C-4.37269531 14.96632813 -4.37269531 14.96632813 -5 16 C-5.99 15.67 -6.98 15.34 -8 15 C-6.125 9.25 -6.125 9.25 -5 7 C-4.34 7 -3.68 7 -3 7 C-3.33 5.68 -3.66 4.36 -4 3 C-3.01 3 -2.02 3 -1 3 C-0.67 2.01 -0.34 1.02 0 0 Z " fill="#D6B3B0" transform="translate(718,520)"/>
<path d="M0 0 C0.33 0 0.66 0 1 0 C1.61279038 4.90232302 -0.22617142 9.02943602 -3 13 C-3.99 13.33 -4.98 13.66 -6 14 C-6.33 14.66 -6.66 15.32 -7 16 C-7.7421875 13.86328125 -7.7421875 13.86328125 -8 11 C-6.3828125 8.10546875 -6.3828125 8.10546875 -4.125 5.1875 C-3.38507812 4.21167969 -2.64515625 3.23585938 -1.8828125 2.23046875 C-1.26148438 1.49441406 -0.64015625 0.75835937 0 0 Z " fill="#D2B7AE" transform="translate(554,389)"/>
<path d="M0 0 C1 3 1 3 0 6 C-0.639375 6.309375 -1.27875 6.61875 -1.9375 6.9375 C-4.17091015 7.82700866 -4.17091015 7.82700866 -5 10.0625 C-6 12 -6 12 -8.125 12.75 C-9.053125 12.87375 -9.053125 12.87375 -10 13 C-9.67 14.32 -9.34 15.64 -9 17 C-9.7425 17.28875 -10.485 17.5775 -11.25 17.875 C-13.56900199 18.82368263 -15.76932676 19.86559779 -18 21 C-14.83375983 17.29318224 -11.65520264 13.59975367 -8.4375 9.9375 C-5.56982401 6.66834937 -2.76735786 3.35437316 0 0 Z " fill="#D1D1D1" transform="translate(719,578)"/>
<path d="M0 0 C0.99 0.33 1.98 0.66 3 1 C3 3.64 3 6.28 3 9 C2.0925 9.144375 1.185 9.28875 0.25 9.4375 C-2.21797731 9.86464992 -4.58066016 10.3741273 -7 11 C-6.02262231 9.35310365 -5.0430468 7.70751146 -4.0625 6.0625 C-3.51722656 5.14597656 -2.97195313 4.22945313 -2.41015625 3.28515625 C-1 1 -1 1 0 0 Z " fill="#C6B4BE" transform="translate(581,351)"/>
<path d="M0 0 C1.98 0 3.96 0 6 0 C6.33 0.66 6.66 1.32 7 2 C5.56640625 4.6015625 5.56640625 4.6015625 3.5625 7.625 C2.90378906 8.62789063 2.24507812 9.63078125 1.56640625 10.6640625 C1.04949219 11.43492187 0.53257812 12.20578125 0 13 C-1.44977894 10.65887549 -2.04314411 9.4203071 -1.7578125 6.640625 C-1.54898438 5.85171875 -1.34015625 5.0628125 -1.125 4.25 C-0.92132812 3.45078125 -0.71765625 2.6515625 -0.5078125 1.828125 C-0.34023438 1.22484375 -0.17265625 0.6215625 0 0 Z " fill="#CAB7C7" transform="translate(730,496)"/>
<path d="M0 0 C1.32 0.33 2.64 0.66 4 1 C1.28522278 6.88201731 -2.29968017 11.56080905 -7 16 C-7.625 13.6875 -7.625 13.6875 -8 11 C-6 8 -6 8 -4 7.1875 C-1.05655591 5.43983007 -0.83508563 3.20116158 0 0 Z " fill="#EED492" transform="translate(584,688)"/>
<path d="M0 0 C2.97 0 5.94 0 9 0 C8.04600922 1.79398267 7.08665974 3.58511655 6.125 5.375 C5.59132813 6.37273437 5.05765625 7.37046875 4.5078125 8.3984375 C3 11 3 11 1 13 C0.375 10.6875 0.375 10.6875 0 8 C0.66 7.01 1.32 6.02 2 5 C1.11785113 2.11785113 1.11785113 2.11785113 0 0 Z " fill="#C6CBE7" transform="translate(728,304)"/>
<path d="M0 0 C0.66 0.66 1.32 1.32 2 2 C1.87173707 8.28488334 -0.75933746 12.72644952 -4 18 C-4.33 18 -4.66 18 -5 18 C-4.51030705 11.38914524 -2.66557258 6.05022986 0 0 Z " fill="#D4C497" transform="translate(575,616)"/>
<path d="M0 0 C1.2463623 0.01047363 2.49272461 0.02094727 3.77685547 0.03173828 C4.77143265 0.03598312 4.77143265 0.03598312 5.78610229 0.04031372 C7.9055988 0.05151643 10.02467401 0.07662027 12.14404297 0.10205078 C13.58023479 0.11208051 15.01643322 0.12120637 16.45263672 0.12939453 C19.97490925 0.15145578 23.496935 0.18598585 27.01904297 0.22705078 C26.68904297 2.53705078 26.35904297 4.84705078 26.01904297 7.22705078 C24.95654297 5.35205078 24.95654297 5.35205078 24.01904297 3.22705078 C24.34904297 2.56705078 24.67904297 1.90705078 25.01904297 1.22705078 C24.21684326 1.25734375 23.41464355 1.28763672 22.58813477 1.31884766 C18.96095903 1.45549414 15.33375168 1.59128273 11.70654297 1.72705078 C9.81258789 1.79859375 9.81258789 1.79859375 7.88037109 1.87158203 C6.671875 1.91669922 5.46337891 1.96181641 4.21826172 2.00830078 C2.54509888 2.07114258 2.54509888 2.07114258 0.83813477 2.13525391 C-1.10077617 2.19838983 -3.04101843 2.22705078 -4.98095703 2.22705078 C-2.98095703 0.22705078 -2.98095703 0.22705078 0 0 Z " fill="#241A0E" transform="translate(577.98095703125,530.77294921875)"/>
<path d="M0 0 C0.66 0.33 1.32 0.66 2 1 C2 1.66 2 2.32 2 3 C2.66 3.33 3.32 3.66 4 4 C4.125 6.875 4.125 6.875 4 10 C3.34 10.66 2.68 11.32 2 12 C0.68 12 -0.64 12 -2 12 C-2.05422947 10.5629191 -2.09289723 9.12524538 -2.125 7.6875 C-2.14820313 6.88699219 -2.17140625 6.08648437 -2.1953125 5.26171875 C-2 3 -2 3 0 0 Z " fill="#C8BFE0" transform="translate(612,308)"/>
<path d="M0 0 C1.65 1.65 3.3 3.3 5 5 C4.67 5.66 4.34 6.32 4 7 C3.01 6.34 2.02 5.68 1 5 C1 14.9 1 24.8 1 35 C0.67 35 0.34 35 0 35 C0 23.45 0 11.9 0 0 Z " fill="#4F4F4F" transform="translate(368,421)"/>
<path d="M0 0 C1.11074104 3.33222313 0.88927847 5.62074182 0 9 C-0.33 9.66 -0.66 10.32 -1 11 C-2.98 11 -4.96 11 -7 11 C-7 10.34 -7 9.68 -7 9 C-6.01 9 -5.02 9 -4 9 C-3.8453125 7.329375 -3.8453125 7.329375 -3.6875 5.625 C-3.460625 4.42875 -3.23375 3.2325 -3 2 C-2.01 1.34 -1.02 0.68 0 0 Z " fill="#C6C2E3" transform="translate(752,463)"/>
<path d="M0 0 C1.32 0 2.64 0 4 0 C4.33 2.97 4.66 5.94 5 9 C4.01 9 3.02 9 2 9 C1.67 8.34 1.34 7.68 1 7 C0.34 7 -0.32 7 -1 7 C-1.33 7.66 -1.66 8.32 -2 9 C-2.6875 7.3125 -2.6875 7.3125 -3 5 C-1.8125 2.25 -1.8125 2.25 0 0 Z " fill="#F0D9A6" transform="translate(595,563)"/>
<path d="M0 0 C2.4375 0.25 2.4375 0.25 5 1 C5.66 1.99 6.32 2.98 7 4 C6.01 5.485 6.01 5.485 5 7 C5.66 7 6.32 7 7 7 C6.67 8.32 6.34 9.64 6 11 C2.66442368 8.0094833 0.84916079 5.06815373 -1 1 C-0.67 0.67 -0.34 0.34 0 0 Z " fill="#F1F1F1" transform="translate(425,500)"/>
<path d="M0 0 C0.66 0.66 1.32 1.32 2 2 C1.91471238 6.52024387 1.44279914 8.49240099 -1.5625 11.9375 C-2.366875 12.618125 -3.17125 13.29875 -4 14 C-4.33 13.34 -4.66 12.68 -5 12 C-4.26821134 9.92803369 -3.44100997 7.8891448 -2.5625 5.875 C-2.08941406 4.77929688 -1.61632812 3.68359375 -1.12890625 2.5546875 C-0.75636719 1.71164062 -0.38382813 0.86859375 0 0 Z " fill="#D5BB7A" transform="translate(534,728)"/>
<path d="M0 0 C2 0 4 0 6 0 C7.19287411 3.87684087 8 6.91621923 8 11 C4.50892621 9.83630874 4.14777237 9.11026462 2.3125 6.0625 C1.87550781 5.35222656 1.43851562 4.64195312 0.98828125 3.91015625 C0 2 0 2 0 0 Z " fill="#E9EAE5" transform="translate(456,547)"/>
<path d="M0 0 C0.33 0 0.66 0 1 0 C1 2.64 1 5.28 1 8 C1.66 8 2.32 8 3 8 C3.25706972 13.91260345 2.2982126 19.23918159 1 25 C0.67 25 0.34 25 0 25 C0 16.75 0 8.5 0 0 Z " fill="#F3F3F3" transform="translate(267,472)"/>
<path d="M0 0 C0.99 0.33 1.98 0.66 3 1 C3 2.65 3 4.3 3 6 C3.99 6.33 4.98 6.66 6 7 C6 8.65 6 10.3 6 12 C2.46766245 10.82255415 2.13691925 10.04394359 0.3125 6.9375 C-0.12449219 6.20402344 -0.56148438 5.47054688 -1.01171875 4.71484375 C-1.33785156 4.14894531 -1.66398437 3.58304687 -2 3 C-1.34 2.01 -0.68 1.02 0 0 Z " fill="#EFEFEF" transform="translate(370,417)"/>
<path d="M0 0 C0.66 0.66 1.32 1.32 2 2 C0.68 4.31 -0.64 6.62 -2 9 C-2.99 8.67 -3.98 8.34 -5 8 C-5.33 5.69 -5.66 3.38 -6 1 C-3.125 0.375 -3.125 0.375 0 0 Z " fill="#BFC0E3" transform="translate(702,359)"/>
<path d="M0 0 C0.99 0 1.98 0 3 0 C2.50582751 7.41258741 2.50582751 7.41258741 0.0625 10.25 C-0.618125 10.8275 -1.29875 11.405 -2 12 C-3.23512079 14.13309192 -3.23512079 14.13309192 -4 16 C-5 14 -5 14 -4.00390625 10.7421875 C-3.53110016 9.4502948 -3.05028031 8.16131362 -2.5625 6.875 C-2.31951172 6.21628906 -2.07652344 5.55757812 -1.82617188 4.87890625 C-1.22421679 3.25008662 -0.61297588 1.62470425 0 0 Z " fill="#F0CE78" transform="translate(541,714)"/>
<path d="M0 0 C3.9252025 3.70090521 6.94580156 7.54959656 10 12 C9.67 12.66 9.34 13.32 9 14 C8.01 13.67 7.02 13.34 6 13 C5.33333333 11.33333333 4.66666667 9.66666667 4 8 C3.01 7.67 2.02 7.34 1 7 C0.67 4.69 0.34 2.38 0 0 Z " fill="#D7D7D7" transform="translate(395,280)"/>
<path d="M0 0 C0.66 0 1.32 0 2 0 C0.58632741 4.34671293 -0.97260641 8.6135639 -2.625 12.875 C-3.07101562 14.02742187 -3.51703125 15.17984375 -3.9765625 16.3671875 C-4.31429687 17.23601563 -4.65203125 18.10484375 -5 19 C-5.33 19 -5.66 19 -6 19 C-5.55230183 12.95607475 -4.49961114 4.49961114 0 0 Z " fill="#ECD492" transform="translate(541,711)"/>
<path d="M0 0 C0.66 0.33 1.32 0.66 2 1 C0.33248852 4.94139078 -2.22710649 7.7892812 -5 11 C-5.99 10.01 -6.98 9.02 -8 8 C-4.375 3.125 -4.375 3.125 -1 2 C-0.67 1.34 -0.34 0.68 0 0 Z " fill="#E9D29C" transform="translate(603,669)"/>
<path d="M0 0 C0.33 0.66 0.66 1.32 1 2 C-0.32 2 -1.64 2 -3 2 C-2.67 3.65 -2.34 5.3 -2 7 C-2.99 7.33 -3.98 7.66 -5 8 C-6.32 6.68 -7.64 5.36 -9 4 C-8.67 3.01 -8.34 2.02 -8 1 C-5.36 0.67 -2.72 0.34 0 0 Z " fill="#F5F3ED" transform="translate(503,600)"/>
<path d="M0 0 C1.32 0 2.64 0 4 0 C5.12377697 3.30435084 4.89554742 5.0506862 3.5625 8.25 C3.27503906 8.95640625 2.98757813 9.6628125 2.69140625 10.390625 C2.46324219 10.92171875 2.23507812 11.4528125 2 12 C1.34 11.67 0.68 11.34 0 11 C0 7.33333333 0 3.66666667 0 0 Z " fill="#E3B883" transform="translate(680,568)"/>
<path d="M0 0 C0.66 0.66 1.32 1.32 2 2 C2.66 1.67 3.32 1.34 4 1 C3.49381745 5.38691545 0.86917019 7.84391279 -2 11 C-2.33 11 -2.66 11 -3 11 C-2.25 3.375 -2.25 3.375 0 0 Z " fill="#F1DDAC" transform="translate(584,594)"/>
<path d="M0 0 C2.64 0 5.28 0 8 0 C8 1.98 8 3.96 8 6 C6.33333333 6 4.66666667 6 3 6 C0 2.53846154 0 2.53846154 0 0 Z " fill="#EEEEEC" transform="translate(448,536)"/>
<path d="M0 0 C0.66 1.32 1.32 2.64 2 4 C0.625 5.5 0.625 5.5 -1 7 C-1.66 7 -2.32 7 -3 7 C-2.7525 7.5775 -2.505 8.155 -2.25 8.75 C-2.1675 9.4925 -2.085 10.235 -2 11 C-3.9375 13.25 -3.9375 13.25 -6 15 C-6.875 13 -6.875 13 -7 10 C-5.64448808 7.75654198 -4.10916642 5.79324195 -2.4453125 3.76953125 C-0.93454579 2.05195777 -0.93454579 2.05195777 0 0 Z " fill="#B7ACBC" transform="translate(594,332)"/>
<path d="M0 0 C2.46598569 2.46598569 3.65194009 4.79033355 5 8 C4.6875 10.375 4.6875 10.375 4 12 C2.68 12 1.36 12 0 12 C0 8.04 0 4.08 0 0 Z " fill="#F4F4F2" transform="translate(425,324)"/>
<path d="M0 0 C0.99 0.33 1.98 0.66 3 1 C2.67 3.97 2.34 6.94 2 10 C0.68 10 -0.64 10 -2 10 C-2.1953125 3.9453125 -2.1953125 3.9453125 -2 2 C-1.34 1.34 -0.68 0.68 0 0 Z " fill="#C0BBD9" transform="translate(621,294)"/>
<path d="M0 0 C5.75 -0.125 5.75 -0.125 8 1 C7.3125 2.9375 7.3125 2.9375 6 5 C3.375 5.75 3.375 5.75 1 6 C0 3 0 3 0 0 Z " fill="#EACF99" transform="translate(648,608)"/>
<path d="M0 0 C0.33 0.99 0.66 1.98 1 3 C1.33 2.01 1.66 1.02 2 0 C2.99 0 3.98 0 5 0 C3.7580393 3.43927579 2.44259716 6.25207819 0 9 C-0.66 9 -1.32 9 -2 9 C-2.33 7.68 -2.66 6.36 -3 5 C-2.34 5 -1.68 5 -1 5 C-1.33 4.01 -1.66 3.02 -2 2 C-1.34 1.34 -0.68 0.68 0 0 Z " fill="#F3F2E7" transform="translate(533,578)"/>
<path d="M0 0 C1 3 1 3 0.1875 5 C-2.13057386 8.90412439 -3.92088465 10.96044233 -8 13 C-8.66 12.67 -9.32 12.34 -10 12 C-6.7 8.04 -3.4 4.08 0 0 Z " fill="#231A10" transform="translate(585,694)"/>
<path d="M0 0 C1.65 0.33 3.3 0.66 5 1 C3.68 3.97 2.36 6.94 1 10 C0.01 10 -0.98 10 -2 10 C-1.34 6.7 -0.68 3.4 0 0 Z " fill="#F5EFDD" transform="translate(554,545)"/>
<path d="M0 0 C0.99 0.33 1.98 0.66 3 1 C3.94693195 4.7016431 4.30443767 6.39112465 2.5625 9.875 C2.046875 10.57625 1.53125 11.2775 1 12 C-1.83022097 8.00439392 -0.76210446 4.57262677 0 0 Z " fill="#F5DAA8" transform="translate(603,538)"/>
<path d="M0 0 C2.64 0.33 5.28 0.66 8 1 C7.01 2.32 6.02 3.64 5 5 C4.67 4.67 4.34 4.34 4 4 C2.515 6.475 2.515 6.475 1 9 C-0.4783226 6.04335481 -0.06032783 3.25770263 0 0 Z " fill="#C5B3C8" transform="translate(656,424)"/>
<path d="M0 0 C0.66 0.66 1.32 1.32 2 2 C1.38125 2.7425 0.7625 3.485 0.125 4.25 C-2.02562108 6.78678881 -2.02562108 6.78678881 -2.9375 9.25 C-4 11 -4 11 -6.625 11.75 C-7.40875 11.8325 -8.1925 11.915 -9 12 C-8.67 11.01 -8.34 10.02 -8 9 C-7.34 9 -6.68 9 -6 9 C-5.7525 8.443125 -5.505 7.88625 -5.25 7.3125 C-3.78393985 4.60028873 -1.97010529 2.36412635 0 0 Z " fill="#CFCFCE" transform="translate(662,641)"/>
<path d="M0 0 C0.99 0.33 1.98 0.66 3 1 C2.125 5.75 2.125 5.75 1 8 C0.01 8 -0.98 8 -2 8 C-2 9.65 -2 11.3 -2 13 C-2.66 13 -3.32 13 -4 13 C-3.40895235 8.15340923 -2.02055843 4.39251833 0 0 Z " fill="#E0CEA1" transform="translate(580,603)"/>
<path d="M0 0 C1.32 0 2.64 0 4 0 C2.8905928 3.48670834 1.73662334 6.77484237 0 10 C-0.66 10 -1.32 10 -2 10 C-1.85950482 8.52031676 -1.71245174 7.04125484 -1.5625 5.5625 C-1.48128906 4.73878906 -1.40007813 3.91507812 -1.31640625 3.06640625 C-1 1 -1 1 0 0 Z " fill="#B6B0C6" transform="translate(746,474)"/>
<path d="M0 0 C0.33 0.66 0.66 1.32 1 2 C1.99 2 2.98 2 4 2 C4 3.65 4 5.3 4 7 C1.69 7 -0.62 7 -3 7 C-2.625 4.0625 -2.625 4.0625 -2 1 C-1.34 0.67 -0.68 0.34 0 0 Z " fill="#DBBDC0" transform="translate(564,377)"/>
<path d="M0 0 C0 3.33333333 0 6.66666667 0 10 C-3.75 11.125 -3.75 11.125 -6 10 C-4.34832443 6.4213696 -2.21713508 3.25179812 0 0 Z " fill="#B2ADC3" transform="translate(611,308)"/>
<path d="M0 0 C1 3 1 3 0.22265625 4.82421875 C-0.8515625 6.54947917 -1.92578125 8.27473958 -3 10 C-5 8 -5 8 -5.3125 5.5625 C-5 3 -5 3 -3.625 1.1875 C-2 0 -2 0 0 0 Z " fill="#D3B6BF" transform="translate(725,512)"/>
<path d="M0 0 C0.33 0.66 0.66 1.32 1 2 C0.67 2.66 0.34 3.32 0 4 C0.66 4.33 1.32 4.66 2 5 C0.37660195 6.70884005 -1.29319053 8.37446717 -3 10 C-3.66 10 -4.32 10 -5 10 C-5.99 10.495 -5.99 10.495 -7 11 C-5.22054913 6.95579349 -2.60470327 3.53921513 0 0 Z " fill="#CFC4AD" transform="translate(522,434)"/>
<path d="M0 0 C0.66 0.33 1.32 0.66 2 1 C-0.64 4.3 -3.28 7.6 -6 11 C-6.99 10.67 -7.98 10.34 -9 10 C-8.2884375 9.38125 -8.2884375 9.38125 -7.5625 8.75 C-5.83733482 6.817815 -5.43415125 5.51807725 -5 3 C-4.01 3 -3.02 3 -2 3 C-2 2.34 -2 1.68 -2 1 C-1.34 0.67 -0.68 0.34 0 0 Z " fill="#EFD593" transform="translate(547,736)"/>
<path d="M0 0 C0.66 0 1.32 0 2 0 C1.57476184 1.60746056 1.13429874 3.21089836 0.6875 4.8125 C0.44386719 5.70582031 0.20023438 6.59914063 -0.05078125 7.51953125 C-1.0200819 10.05247738 -1.95009604 11.2716496 -4 13 C-3.50269348 8.02693484 -2.44697666 4.36200187 0 0 Z " fill="#F0D99A" transform="translate(553,679)"/>
<path d="M0 0 C1.59328036 5.43379944 0.15305399 10.56417405 -1 16 C-2.32 16 -3.64 16 -5 16 C-4.5978125 14.824375 -4.5978125 14.824375 -4.1875 13.625 C-2.70766479 9.10760831 -1.35097726 4.55729662 0 0 Z " fill="#D6C08A" transform="translate(557,664)"/>
<path d="M0 0 C0.99 0.66 1.98 1.32 3 2 C0.11887921 4.88112079 -2.79921828 7.47306706 -6 10 C-6.66 9.67 -7.32 9.34 -8 9 C-5.36 6.03 -2.72 3.06 0 0 Z " fill="#372D1C" transform="translate(597,680)"/>
<path d="M0 0 C-0.66 2.31 -1.32 4.62 -2 7 C-2.66 7 -3.32 7 -4 7 C-4.66 4.69 -5.32 2.38 -6 0 C-3.50907189 -1.24546405 -2.58919267 -0.7767578 0 0 Z " fill="#E7D2B5" transform="translate(529,432)"/>
<path d="M0 0 C0.99 0.33 1.98 0.66 3 1 C3 1.66 3 2.32 3 3 C2.34 3 1.68 3 1 3 C0.9175 3.763125 0.835 4.52625 0.75 5.3125 C-0.14615794 8.52373261 -1.21611025 9.29374499 -4 11 C-3.21681311 7.08406554 -1.60820142 3.63593365 0 0 Z " fill="#F4E0AD" transform="translate(617,649)"/>
<path d="M0 0 C-1.44253657 3.36591866 -3.33264727 5.51047079 -6 8 C-6 7.01 -6 6.02 -6 5 C-5.34 5 -4.68 5 -4 5 C-4.99 4.01 -5.98 3.02 -7 2 C-7.33 2.66 -7.66 3.32 -8 4 C-8 3.01 -8 2.02 -8 1 C-2.25 -1.125 -2.25 -1.125 0 0 Z " fill="#E4CF9F" transform="translate(624,647)"/>
<path d="M0 0 C0.66 1.32 1.32 2.64 2 4 C0.35 5.32 -1.3 6.64 -3 8 C-2.67 8.66 -2.34 9.32 -2 10 C-3.65 10.66 -5.3 11.32 -7 12 C-5.44298069 7.32894208 -2.91552627 3.91294315 0 0 Z " fill="#362B2F" transform="translate(730,508)"/>
<path d="M0 0 C0.66 0.33 1.32 0.66 2 1 C1.67 2.65 1.34 4.3 1 6 C0.01 6 -0.98 6 -2 6 C-4.18777466 7.9375006 -4.18777466 7.9375006 -6 10 C-6.66 9.67 -7.32 9.34 -8 9 C-5.36 6.03 -2.72 3.06 0 0 Z " fill="#CACAC9" transform="translate(699,600)"/>
<path d="M0 0 C0.33 0.99 0.66 1.98 1 3 C1.66 3.33 2.32 3.66 3 4 C0.03 6.475 0.03 6.475 -3 9 C-3.33 8.01 -3.66 7.02 -4 6 C-2.0625 2.8125 -2.0625 2.8125 0 0 Z " fill="#D2BBA8" transform="translate(539,410)"/>
<path d="M0 0 C1.32 0.33 2.64 0.66 4 1 C1.74259377 3.33524782 -0.2805761 5.18705073 -3 7 C-3.33 5.35 -3.66 3.7 -4 2 C-3.34 1.67 -2.68 1.34 -2 1 C-1.34 1.33 -0.68 1.66 0 2 C0 1.34 0 0.68 0 0 Z " fill="#BEC6E0" transform="translate(748,279)"/>
<path d="M0 0 C2 2 2 2 2 6 C1.2575 5.95875 0.515 5.9175 -0.25 5.875 C-3.08758952 6.00398134 -4.58773938 6.57051222 -7 8 C-6.67 6.68 -6.34 5.36 -6 4 C-4.35 3.67 -2.7 3.34 -1 3 C-0.67 2.01 -0.34 1.02 0 0 Z " fill="#CAC7E7" transform="translate(638,274)"/>
<path d="M0 0 C0.33 0 0.66 0 1 0 C0.67 2.64 0.34 5.28 0 8 C-1.65 8.33 -3.3 8.66 -5 9 C-3.75471468 5.55151758 -2.38532951 2.80016942 0 0 Z " fill="#B0AFC6" transform="translate(638,269)"/>
<path d="M0 0 C0.66 1.32 1.32 2.64 2 4 C-0.62198774 6.15377564 -2.64404172 7.40072174 -6 8 C-4.625 5.5 -4.625 5.5 -3 3 C-2.34 3 -1.68 3 -1 3 C-0.67 2.01 -0.34 1.02 0 0 Z " fill="#261F17" transform="translate(662,602)"/>
<path d="M0 0 C1.32 0.33 2.64 0.66 4 1 C3.25 5.75 3.25 5.75 1 8 C0 7 0 7 -0.0625 3.4375 C-0.041875 2.303125 -0.02125 1.16875 0 0 Z " fill="#F2D59C" transform="translate(656,600)"/>
<path d="M0 0 C2.3431213 0.25561323 4.67843403 0.59270772 7 1 C7.33 1.66 7.66 2.32 8 3 C6.68 4.32 5.36 5.64 4 7 C4 6.01 4 5.02 4 4 C3.01 4.495 3.01 4.495 2 5 C1.34 3.35 0.68 1.7 0 0 Z " fill="#CCC1DE" transform="translate(665,408)"/>
<path d="M0 0 C3.68802044 1.22934015 4.72356973 2.93859378 7 6 C6.67 6.66 6.34 7.32 6 8 C4.0625 7.625 4.0625 7.625 2 7 C1.67 6.34 1.34 5.68 1 5 C0.01 5.495 0.01 5.495 -1 6 C-0.67 4.02 -0.34 2.04 0 0 Z " fill="#DBDBDA" transform="translate(441,347)"/>
<path d="M0 0 C1.32 0.33 2.64 0.66 4 1 C4 2.65 4 4.3 4 6 C3.34 6 2.68 6 2 6 C1.34 6.66 0.68 7.32 0 8 C-1.125 6.25 -1.125 6.25 -2 4 C-1.125 1.75 -1.125 1.75 0 0 Z " fill="#E2C683" transform="translate(548,690)"/>
<path d="M0 0 C1.98 0 3.96 0 6 0 C5.19152271 1.16945792 4.37810888 2.33550461 3.5625 3.5 C3.11003906 4.1496875 2.65757812 4.799375 2.19140625 5.46875 C1.79824219 5.9740625 1.40507813 6.479375 1 7 C0.67 7 0.34 7 0 7 C0 4.69 0 2.38 0 0 Z " fill="#E8E1CF" transform="translate(569,531)"/>
<path d="M0 0 C0.99 0.33 1.98 0.66 3 1 C3.33 2.65 3.66 4.3 4 6 C2.02 6 0.04 6 -2 6 C-1.49396008 3.83125748 -1.00016187 2.00032373 0 0 Z " fill="#EBEBE9" transform="translate(474,394)"/>
<path d="M0 0 C0.66 0 1.32 0 2 0 C4.8394052 3.67452438 6 5.26886581 6 10 C5.34 10 4.68 10 4 10 C3.67 8.35 3.34 6.7 3 5 C2.01 4.67 1.02 4.34 0 4 C0 2.68 0 1.36 0 0 Z " fill="#E8E8E8" transform="translate(389,272)"/>
<path d="M0 0 C-0.33 0.99 -0.66 1.98 -1 3 C-1 3.99 -1 4.98 -1 6 C-1 6.99 -1 7.98 -1 9 C-3 7.25 -3 7.25 -5 5 C-5 3.68 -5 2.36 -5 1 C-3 0 -3 0 0 0 Z " fill="#F5F3EC" transform="translate(505,608)"/>
<path d="M0 0 C0.3125 2.1875 0.3125 2.1875 0 5 C-2.5 7.8125 -2.5 7.8125 -5 10 C-5.8125 7.8125 -5.8125 7.8125 -6 5 C-1.77777778 0 -1.77777778 0 0 0 Z " fill="#E1C896" transform="translate(665,595)"/>
<path d="M0 0 C0.33 0.66 0.66 1.32 1 2 C0.67 2.66 0.34 3.32 0 4 C0.99 4.33 1.98 4.66 3 5 C1.1875 6.0625 1.1875 6.0625 -1 7 C-1.99 6.67 -2.98 6.34 -4 6 C-2.68 4.02 -1.36 2.04 0 0 Z M3 2 C3.66 2 4.32 2 5 2 C5.33 2.99 5.66 3.98 6 5 C5.01 4.67 4.02 4.34 3 4 C3 3.34 3 2.68 3 2 Z " fill="#C0AEB6" transform="translate(578,355)"/>
<path d="M0 0 C0.33 0.66 0.66 1.32 1 2 C1.66 2 2.32 2 3 2 C1.7490436 4.50191281 -0.02989568 6.02989568 -2 8 C-2.33 8.66 -2.66 9.32 -3 10 C-3.66 10 -4.32 10 -5 10 C-3.66511872 6.40608886 -2.03977277 3.24509304 0 0 Z " fill="#2C2B36" transform="translate(713,344)"/>
<path d="M0 0 C0.66 0 1.32 0 2 0 C1.67 1.32 1.34 2.64 1 4 C0.34 4 -0.32 4 -1 4 C-1.28875 4.969375 -1.5775 5.93875 -1.875 6.9375 C-3 10 -3 10 -5 11 C-5 9.35 -5 7.7 -5 6 C-4.34 5.67 -3.68 5.34 -3 5 C-2.505 4.154375 -2.01 3.30875 -1.5 2.4375 C-1.005 1.633125 -0.51 0.82875 0 0 Z " fill="#C0C5DF" transform="translate(723,324)"/>
<path d="M0 0 C0.33 0.99 0.66 1.98 1 3 C-1.31 4.98 -3.62 6.96 -6 9 C-4.52307692 2.35384615 -4.52307692 2.35384615 -1.875 0.5625 C-0.946875 0.2840625 -0.946875 0.2840625 0 0 Z " fill="#EED894" transform="translate(565,715)"/>
<path d="M0 0 C0.66 0.99 1.32 1.98 2 3 C1 6 1 6 -0.875 7.1875 C-3 8 -3 8 -6 8 C-4.02 5.36 -2.04 2.72 0 0 Z " fill="#31312D" transform="translate(534,584)"/>
<path d="M0 0 C4.67692308 1.47692308 4.67692308 1.47692308 6.3125 4.125 C6.539375 4.74375 6.76625 5.3625 7 6 C6.21625 5.814375 5.4325 5.62875 4.625 5.4375 C2.02910225 4.74037734 2.02910225 4.74037734 0 6 C0 4.02 0 2.04 0 0 Z " fill="#181818" transform="translate(369,426)"/>
<path d="M0 0 C0.66 1.32 1.32 2.64 2 4 C1.01 4.33 0.02 4.66 -1 5 C-1 5.99 -1 6.98 -1 8 C-2.65 8.66 -4.3 9.32 -6 10 C-4.02 6.7 -2.04 3.4 0 0 Z " fill="#252630" transform="translate(694,376)"/>
<path d="M0 0 C2.5625 2.25 2.5625 2.25 5 5 C4.8125 7.3125 4.8125 7.3125 4 9 C0.06153846 5.67692308 0.06153846 5.67692308 -0.25 2.25 C-0.1675 1.5075 -0.085 0.765 0 0 Z " fill="#D9D9D7" transform="translate(459,371)"/>
<path d="M0 0 C0.66 0.66 1.32 1.32 2 2 C1.34 3.98 0.68 5.96 0 8 C-0.66 8 -1.32 8 -2 8 C-2.33 7.01 -2.66 6.02 -3 5 C-1.5625 2.3125 -1.5625 2.3125 0 0 Z " fill="#F3F1E8" transform="translate(523,592)"/>
<path d="M0 0 C1.98 0 3.96 0 6 0 C5.34 1.65 4.68 3.3 4 5 C3.34 5 2.68 5 2 5 C2 4.34 2 3.68 2 3 C1.34 3 0.68 3 0 3 C0 2.01 0 1.02 0 0 Z " fill="#F3F0E4" transform="translate(545,561)"/>
<path d="M0 0 C0.8125 1.6875 0.8125 1.6875 1 4 C-1.4375 6.75 -1.4375 6.75 -4 9 C-4 5.00095031 -2.27413033 3.19799578 0 0 Z " fill="#B8B4CD" transform="translate(627,285)"/>
<path d="M0 0 C0.99 0 1.98 0 3 0 C2.67 2.64 2.34 5.28 2 8 C1.01 8.33 0.02 8.66 -1 9 C-0.67 6.03 -0.34 3.06 0 0 Z " fill="#FAD27E" transform="translate(541,714)"/>
<path d="M0 0 C0.33 0.66 0.66 1.32 1 2 C0.34 2 -0.32 2 -1 2 C-1.66 3.32 -2.32 4.64 -3 6 C-3.99 6 -4.98 6 -6 6 C-4.95125002 3.37812506 -4.35068687 2.20628639 -1.875 0.75 C-1.25625 0.5025 -0.6375 0.255 0 0 Z " fill="#F3D591" transform="translate(594,679)"/>
<path d="M0 0 C0.66 1.32 1.32 2.64 2 4 C1.2575 4.28875 0.515 4.5775 -0.25 4.875 C-2.56900199 5.82368263 -4.76932676 6.86559779 -7 8 C-6.02133662 6.85373678 -5.04205413 5.70800212 -4.0625 4.5625 C-3.51722656 3.92441406 -2.97195313 3.28632812 -2.41015625 2.62890625 C-1.63204305 1.73008851 -0.84063472 0.84063472 0 0 Z " fill="#DEDEDD" transform="translate(708,591)"/>
<path d="M0 0 C0.66 0.99 1.32 1.98 2 3 C0.35 4.65 -1.3 6.3 -3 8 C-3.33 6.35 -3.66 4.7 -4 3 C-2.68 2.01 -1.36 1.02 0 0 Z " fill="#EED09A" transform="translate(668,590)"/>
<path d="M0 0 C1.32 0 2.64 0 4 0 C3.34 2.31 2.68 4.62 2 7 C1.34 7 0.68 7 0 7 C0 4.69 0 2.38 0 0 Z " fill="#F7C589" transform="translate(674,576)"/>
<path d="M0 0 C0.99 1.32 1.98 2.64 3 4 C2.01 5.98 1.02 7.96 0 10 C-0.33 10 -0.66 10 -1 10 C-1.125 2.25 -1.125 2.25 0 0 Z " fill="#D3C69C" transform="translate(591,571)"/>
<path d="M0 0 C2.31 0.33 4.62 0.66 7 1 C6.34 2.32 5.68 3.64 5 5 C4.01 4.34 3.02 3.68 2 3 C1.67 3.99 1.34 4.98 1 6 C0 3 0 3 0 0 Z " fill="#F4EEDD" transform="translate(562,536)"/>
<path d="M0 0 C-1.65 1.65 -3.3 3.3 -5 5 C-5.33 3.35 -5.66 1.7 -6 0 C-3 -1 -3 -1 0 0 Z " fill="#E4CE93" transform="translate(582,699)"/>
<path d="M0 0 C2.475 0.495 2.475 0.495 5 1 C5 1.99 5 2.98 5 4 C4.34 4.66 3.68 5.32 3 6 C0 2.25 0 2.25 0 0 Z " fill="#D8D9D4" transform="translate(486,592)"/>
<path d="M0 0 C1 3 1 3 0.25 5.625 C-1 8 -1 8 -4 9 C-2.94124926 5.59687262 -1.99097846 2.98646769 0 0 Z " fill="#DBCAA3" transform="translate(587,586)"/>
<path d="M0 0 C0.33 0.99 0.66 1.98 1 3 C-0.3125 5.1875 -0.3125 5.1875 -2 7 C-2.66 7 -3.32 7 -4 7 C-3.6875 4.625 -3.6875 4.625 -3 2 C-2.01 1.34 -1.02 0.68 0 0 Z " fill="#EBC0A0" transform="translate(697,554)"/>
<path d="M0 0 C0.33 0.66 0.66 1.32 1 2 C1.66 2.33 2.32 2.66 3 3 C2.67 3.66 2.34 4.32 2 5 C0.02 5 -1.96 5 -4 5 C-4 4.34 -4 3.68 -4 3 C-3.01 3 -2.02 3 -1 3 C-0.67 2.01 -0.34 1.02 0 0 Z " fill="#C1BCDB" transform="translate(749,469)"/>
<path d="M0 0 C1.65 1.65 3.3 3.3 5 5 C4.67 5.66 4.34 6.32 4 7 C3.01 6.34 2.02 5.68 1 5 C0.67 6.32 0.34 7.64 0 9 C0 6.03 0 3.06 0 0 Z " fill="#343434" transform="translate(368,421)"/>
<path d="M0 0 C2.5625 2.25 2.5625 2.25 5 5 C4.8125 7.3125 4.8125 7.3125 4 9 C1.49701566 6.06171403 0.53069061 3.82097239 0 0 Z " fill="#CCCCCA" transform="translate(426,324)"/>
<path d="M0 0 C0.99 0.33 1.98 0.66 3 1 C1.625 3.5 1.625 3.5 0 6 C-0.66 6 -1.32 6 -2 6 C-1.125 1.125 -1.125 1.125 0 0 Z " fill="#EBB596" transform="translate(698,544)"/>
<path d="M0 0 C2 0 4 0 6 0 C6 0.99 6 1.98 6 3 C5.34 3 4.68 3 4 3 C4 3.66 4 4.32 4 5 C3.34 5 2.68 5 2 5 C1.34 3.35 0.68 1.7 0 0 Z " fill="#F5F5F3" transform="translate(456,547)"/>
<path d="M0 0 C-0.66 1.65 -1.32 3.3 -2 5 C-3.32 4.67 -4.64 4.34 -6 4 C-5.67 3.01 -5.34 2.02 -5 1 C-3 0 -3 0 0 0 Z " fill="#CEB4B8" transform="translate(569,374)"/>
<path d="M0 0 C0.33 0.66 0.66 1.32 1 2 C0.67 2.66 0.34 3.32 0 4 C0.66 4.33 1.32 4.66 2 5 C0.35 5.66 -1.3 6.32 -3 7 C-3 3.48283697 -2.17554415 2.62878252 0 0 Z " fill="#B7A9B4" transform="translate(586,344)"/>
<path d="M0 0 C0.66 1.32 1.32 2.64 2 4 C1.01 4.99 0.02 5.98 -1 7 C-1.99 6.67 -2.98 6.34 -4 6 C-2.68 4.02 -1.36 2.04 0 0 Z " fill="#AEA4B6" transform="translate(599,325)"/>
<path d="M0 0 C2 1 2 1 2 1 Z M-3 1 C-2.34 1.66 -1.68 2.32 -1 3 C-1.125 5 -1.125 5 -2 7 C-4.0625 8.25 -4.0625 8.25 -6 9 C-4.125 3.25 -4.125 3.25 -3 1 Z " fill="#191A22" transform="translate(730,319)"/>
<path d="M0 0 C1.65 1.65 3.3 3.3 5 5 C3.68 5.33 2.36 5.66 1 6 C0.67 4.02 0.34 2.04 0 0 Z M-1 5 C-0.34 5.66 0.32 6.32 1 7 C0.34 7 -0.32 7 -1 7 C-1 6.34 -1 5.68 -1 5 Z " fill="#D8D8D8" transform="translate(405,294)"/>
<path d="M0 0 C1.32 0.33 2.64 0.66 4 1 C3.67 2.32 3.34 3.64 3 5 C1.35 5 -0.3 5 -2 5 C-1.34 3.35 -0.68 1.7 0 0 Z " fill="#CFD7F4" transform="translate(749,274)"/>
<path d="M0 0 C0.33 0.66 0.66 1.32 1 2 C-0.32 3.65 -1.64 5.3 -3 7 C-3.99 6.67 -4.98 6.34 -6 6 C-4.02 4.02 -2.04 2.04 0 0 Z " fill="#423720" transform="translate(552,733)"/>
<path d="M0 0 C2.475 0.495 2.475 0.495 5 1 C4.34 2.32 3.68 3.64 3 5 C2.01 4.67 1.02 4.34 0 4 C0 2.68 0 1.36 0 0 Z " fill="#F9D487" transform="translate(560,712)"/>
<path d="M0 0 C0.99 0 1.98 0 3 0 C2.34 2.64 1.68 5.28 1 8 C-0.42944945 5.64561267 -1.08661261 4.51967567 -0.625 1.75 C-0.41875 1.1725 -0.2125 0.595 0 0 Z " fill="#2C2313" transform="translate(537,712)"/>
<path d="M0 0 C0.33 0 0.66 0 1 0 C1 3.3 1 6.6 1 10 C0.01 9.67 -0.98 9.34 -2 9 C-1.34 6.03 -0.68 3.06 0 0 Z " fill="#DBC488" transform="translate(543,702)"/>
<path d="M0 0 C0.66 0.66 1.32 1.32 2 2 C1.67 2.99 1.34 3.98 1 5 C-0.65 5.33 -2.3 5.66 -4 6 C-1.125 1.125 -1.125 1.125 0 0 Z " fill="#D1D1D1" transform="translate(683,618)"/>
<path d="M0 0 C0.33 0.99 0.66 1.98 1 3 C-0.25541557 5.51083114 -1.50063488 5.87125446 -4 7 C-3.43628586 3.73045798 -2.50037734 2.17424117 0 0 Z " fill="#1D160D" transform="translate(655,611)"/>
<path d="M0 0 C0.99 0 1.98 0 3 0 C2.625 2.4375 2.625 2.4375 2 5 C1.01 5.495 1.01 5.495 0 6 C-0.66 5.34 -1.32 4.68 -2 4 C-1.34 2.68 -0.68 1.36 0 0 Z " fill="#EEEDE9" transform="translate(511,608)"/>
<path d="M0 0 C1.32 0.33 2.64 0.66 4 1 C-1.75 6 -1.75 6 -4 6 C-4 5.34 -4 4.68 -4 4 C-3.34 4 -2.68 4 -2 4 C-1.34 2.68 -0.68 1.36 0 0 Z " fill="#2A1E13" transform="translate(680,580)"/>
<path d="M0 0 C1.32 0.33 2.64 0.66 4 1 C4.33 2.98 4.66 4.96 5 7 C4.67 6.34 4.34 5.68 4 5 C3.34 5 2.68 5 2 5 C1.34 3.35 0.68 1.7 0 0 Z " fill="#D7D6D3" transform="translate(466,563)"/>
<path d="M0 0 C0.99 0 1.98 0 3 0 C3 2.31 3 4.62 3 7 C1.68 5.35 0.36 3.7 -1 2 C-0.67 1.34 -0.34 0.68 0 0 Z " fill="#EAEAEA" transform="translate(425,500)"/>
<path d="M0 0 C0.66 0 1.32 0 2 0 C1.67 2.31 1.34 4.62 1 7 C0.34 7 -0.32 7 -1 7 C-1 6.34 -1 5.68 -1 5 C-1.66 4.67 -2.32 4.34 -3 4 C-2.505 3.525625 -2.01 3.05125 -1.5 2.5625 C0.11542197 1.24076302 0.11542197 1.24076302 0 0 Z " fill="#C9C1D5" transform="translate(742,481)"/>
<path d="M0 0 C1.32 0 2.64 0 4 0 C3.34 1.32 2.68 2.64 2 4 C1.34 4 0.68 4 0 4 C-0.99 4.66 -1.98 5.32 -3 6 C-1.125 1.125 -1.125 1.125 0 0 Z " fill="#221C28" transform="translate(673,410)"/>
<path d="M0 0 C0.33 0 0.66 0 1 0 C1 1.65 1 3.3 1 5 C-0.65 5.66 -2.3 6.32 -4 7 C-2.79618552 4.50638429 -1.54571278 2.31856917 0 0 Z " fill="#C3AAA5" transform="translate(554,389)"/>
<path d="M0 0 C0.66 0.33 1.32 0.66 2 1 C0.25 5.875 0.25 5.875 -2 7 C-2.33 5.35 -2.66 3.7 -3 2 C-2.01 1.34 -1.02 0.68 0 0 Z " fill="#BFB2C1" transform="translate(590,340)"/>
<path d="M0 0 C0.66 0.33 1.32 0.66 2 1 C2 4.10551666 1.4606285 5.35261084 0 8 C-0.66 7.34 -1.32 6.68 -2 6 C-1.64644564 3.73725212 -1.02455574 2.04911148 0 0 Z " fill="#D0CAE6" transform="translate(612,308)"/>
</svg>
